<?xml version="1.0" encoding="UTF-8"?>
<!DOCTYPE svg PUBLIC "-//W3C//DTD SVG 1.1//EN" "http://www.w3.org/Graphics/SVG/1.1/DTD/svg11.dtd">
<svg xmlns="http://www.w3.org/2000/svg" version="1.1" width="5017px" height="1150px" style="shape-rendering:geometricPrecision; text-rendering:geometricPrecision; image-rendering:optimizeQuality; fill-rule:evenodd; clip-rule:evenodd" xmlns:xlink="http://www.w3.org/1999/xlink">
<g><path style="opacity:0.993" fill="#eeca92" d="M 1757.5,-0.5 C 1762.5,-0.5 1767.5,-0.5 1772.5,-0.5C 1772.5,46.8333 1772.5,94.1667 1772.5,141.5C 1765.5,141.5 1758.5,141.5 1751.5,141.5C 1751.5,94.5 1751.5,47.5 1751.5,0.5C 1753.74,0.794717 1755.74,0.461384 1757.5,-0.5 Z"/></g>
<g><path style="opacity:0.996" fill="#efcd98" d="M 1772.5,-0.5 C 1779.17,-0.5 1785.83,-0.5 1792.5,-0.5C 1792.5,47.1667 1792.5,94.8333 1792.5,142.5C 1785.87,141.669 1779.2,141.336 1772.5,141.5C 1772.5,94.1667 1772.5,46.8333 1772.5,-0.5 Z"/></g>
<g><path style="opacity:0.995" fill="#efcf9b" d="M 1792.5,-0.5 C 1794.5,-0.5 1796.5,-0.5 1798.5,-0.5C 1798.5,47.1667 1798.5,94.8333 1798.5,142.5C 1796.5,142.5 1794.5,142.5 1792.5,142.5C 1792.5,94.8333 1792.5,47.1667 1792.5,-0.5 Z"/></g>
<g><path style="opacity:0.994" fill="#efd09f" d="M 1798.5,-0.5 C 1803.83,-0.5 1809.17,-0.5 1814.5,-0.5C 1815.92,0.451145 1817.59,0.784479 1819.5,0.5C 1819.5,48.5 1819.5,96.5 1819.5,144.5C 1812.51,143.778 1805.51,143.112 1798.5,142.5C 1798.5,94.8333 1798.5,47.1667 1798.5,-0.5 Z"/></g>
<g><path style="opacity:0.994" fill="#eec88d" d="M 1751.5,0.5 C 1751.5,47.5 1751.5,94.5 1751.5,141.5C 1745.49,141.701 1739.49,142.034 1733.5,142.5C 1733.5,95.5 1733.5,48.5 1733.5,1.5C 1739.5,1.16667 1745.5,0.833333 1751.5,0.5 Z"/></g>
<g><path style="opacity:0.994" fill="#f0d2a5" d="M 1819.5,0.5 C 1826.83,0.943884 1834.16,1.27722 1841.5,1.5C 1841.5,49.5 1841.5,97.5 1841.5,145.5C 1834.14,145.635 1826.8,145.302 1819.5,144.5C 1819.5,96.5 1819.5,48.5 1819.5,0.5 Z"/></g>
<g><path style="opacity:0.994" fill="#eec78a" d="M 1733.5,1.5 C 1733.5,48.5 1733.5,95.5 1733.5,142.5C 1732.17,142.5 1730.83,142.5 1729.5,142.5C 1729.5,95.8333 1729.5,49.1667 1729.5,2.5C 1730.71,1.76589 1732.04,1.43255 1733.5,1.5 Z"/></g>
<g><path style="opacity:0.992" fill="#efd4a8" d="M 1841.5,1.5 C 1842.49,1.32842 1843.16,1.66175 1843.5,2.5C 1843.5,50.1667 1843.5,97.8333 1843.5,145.5C 1842.83,145.5 1842.17,145.5 1841.5,145.5C 1841.5,97.5 1841.5,49.5 1841.5,1.5 Z"/></g>
<g><path style="opacity:0.995" fill="#eec687" d="M 1729.5,2.5 C 1729.5,49.1667 1729.5,95.8333 1729.5,142.5C 1725.13,143.102 1720.8,143.769 1716.5,144.5C 1716.5,97.5 1716.5,50.5 1716.5,3.5C 1720.81,2.91979 1725.14,2.58645 1729.5,2.5 Z"/></g>
<g><path style="opacity:0.994" fill="#f0d5ab" d="M 1843.5,2.5 C 1849.85,2.65266 1856.18,2.98599 1862.5,3.5C 1862.5,50.1667 1862.5,96.8333 1862.5,143.5C 1856.26,144.891 1849.93,145.557 1843.5,145.5C 1843.5,97.8333 1843.5,50.1667 1843.5,2.5 Z"/></g>
<g><path style="opacity:0.994" fill="#edc484" d="M 1716.5,3.5 C 1716.5,50.5 1716.5,97.5 1716.5,144.5C 1714.83,144.5 1713.17,144.5 1711.5,144.5C 1711.5,97.8333 1711.5,51.1667 1711.5,4.5C 1713.12,3.962 1714.78,3.62867 1716.5,3.5 Z"/></g>
<g><path style="opacity:0.993" fill="#f0d8b1" d="M 1862.5,3.5 C 1870.86,4.64673 1879.19,5.98007 1887.5,7.5C 1887.5,50.5 1887.5,93.5 1887.5,136.5C 1879.39,139.61 1871.06,141.943 1862.5,143.5C 1862.5,96.8333 1862.5,50.1667 1862.5,3.5 Z"/></g>
<g><path style="opacity:0.993" fill="#ecc281" d="M 1711.5,4.5 C 1711.5,51.1667 1711.5,97.8333 1711.5,144.5C 1707.26,145.535 1702.93,146.201 1698.5,146.5C 1698.5,99.8333 1698.5,53.1667 1698.5,6.5C 1702.71,5.29804 1707.05,4.63137 1711.5,4.5 Z"/></g>
<g><path style="opacity:0.994" fill="#eac07d" d="M 1698.5,6.5 C 1698.5,53.1667 1698.5,99.8333 1698.5,146.5C 1696.28,147.369 1693.95,147.702 1691.5,147.5C 1691.5,100.833 1691.5,54.1667 1691.5,7.5C 1693.72,6.63137 1696.05,6.29803 1698.5,6.5 Z"/></g>
<g><path style="opacity:0.994" fill="#e9be79" d="M 1691.5,7.5 C 1691.5,54.1667 1691.5,100.833 1691.5,147.5C 1686.29,148.947 1680.95,150.28 1675.5,151.5C 1675.5,104.5 1675.5,57.5 1675.5,10.5C 1680.62,9.0113 1685.95,8.0113 1691.5,7.5 Z"/></g>
<g><path style="opacity:0.992" fill="#f1dab6" d="M 1887.5,7.5 C 1890.24,7.40132 1892.9,7.73465 1895.5,8.5C 1895.5,49.8333 1895.5,91.1667 1895.5,132.5C 1892.99,134.011 1890.33,135.345 1887.5,136.5C 1887.5,93.5 1887.5,50.5 1887.5,7.5 Z"/></g>
<g><path style="opacity:0.991" fill="#f1dbb9" d="M 1895.5,8.5 C 1900.2,8.95037 1904.87,9.61703 1909.5,10.5C 1909.5,48.5 1909.5,86.5 1909.5,124.5C 1905.17,127.669 1900.5,130.336 1895.5,132.5C 1895.5,91.1667 1895.5,49.8333 1895.5,8.5 Z"/></g>
<g><path style="opacity:0.993" fill="#e7bc75" d="M 1675.5,10.5 C 1675.5,57.5 1675.5,104.5 1675.5,151.5C 1673.19,151.993 1670.86,152.326 1668.5,152.5C 1668.5,105.5 1668.5,58.5 1668.5,11.5C 1670.76,10.7814 1673.1,10.448 1675.5,10.5 Z"/></g>
<g><path style="opacity:0.989" fill="#f1ddbe" d="M 1909.5,10.5 C 1916.46,11.7794 1923.46,12.7794 1930.5,13.5C 1930.5,44.8333 1930.5,76.1667 1930.5,107.5C 1924.37,114.297 1917.37,119.964 1909.5,124.5C 1909.5,86.5 1909.5,48.5 1909.5,10.5 Z"/></g>
<g><path style="opacity:0.994" fill="#e6ba72" d="M 1668.5,11.5 C 1668.5,58.5 1668.5,105.5 1668.5,152.5C 1665.17,153.5 1661.83,154.5 1658.5,155.5C 1658.5,108.167 1658.5,60.8333 1658.5,13.5C 1661.83,12.8333 1665.17,12.1667 1668.5,11.5 Z"/></g>
<g><path style="opacity:0.993" fill="#e5b86d" d="M 1658.5,13.5 C 1658.5,60.8333 1658.5,108.167 1658.5,155.5C 1653.08,156.521 1647.75,157.854 1642.5,159.5C 1642.5,112.167 1642.5,64.8333 1642.5,17.5C 1647.78,16.0427 1653.11,14.7094 1658.5,13.5 Z"/></g>
<g><path style="opacity:0.985" fill="#f1dfc3" d="M 1930.5,13.5 C 1935.76,14.711 1941.1,15.711 1946.5,16.5C 1946.5,40.5 1946.5,64.5 1946.5,88.5C 1942.35,95.7997 1937.01,102.133 1930.5,107.5C 1930.5,76.1667 1930.5,44.8333 1930.5,13.5 Z"/></g>
<g><path style="opacity:0.98" fill="#f2e1c6" d="M 1946.5,16.5 C 1948.5,16.8333 1950.5,17.1667 1952.5,17.5C 1952.5,37.8333 1952.5,58.1667 1952.5,78.5C 1951,82.173 1949,85.5063 1946.5,88.5C 1946.5,64.5 1946.5,40.5 1946.5,16.5 Z"/></g>
<g><path style="opacity:0.994" fill="#e4b669" d="M 1642.5,17.5 C 1642.5,64.8333 1642.5,112.167 1642.5,159.5C 1641.17,159.833 1639.83,160.167 1638.5,160.5C 1638.5,113.167 1638.5,65.8333 1638.5,18.5C 1639.71,17.7659 1641.04,17.4326 1642.5,17.5 Z"/></g>
<g><path style="opacity:0.945" fill="#f2e1c9" d="M 1952.5,17.5 C 1962.56,16.8989 1967.89,21.5656 1968.5,31.5C 1966.72,48.515 1961.38,64.1817 1952.5,78.5C 1952.5,58.1667 1952.5,37.8333 1952.5,17.5 Z"/></g>
<g><path style="opacity:0.993" fill="#e2b366" d="M 1638.5,18.5 C 1638.5,65.8333 1638.5,113.167 1638.5,160.5C 1633.18,162.161 1627.85,163.828 1622.5,165.5C 1622.5,117.833 1622.5,70.1667 1622.5,22.5C 1627.78,20.9628 1633.11,19.6295 1638.5,18.5 Z"/></g>
<g><path style="opacity:0.994" fill="#e1b161" d="M 1622.5,22.5 C 1622.5,70.1667 1622.5,117.833 1622.5,165.5C 1619.45,166.346 1616.45,167.346 1613.5,168.5C 1613.5,120.833 1613.5,73.1667 1613.5,25.5C 1616.45,24.3456 1619.45,23.3456 1622.5,22.5 Z"/></g>
<g><path style="opacity:0.992" fill="#e0af5f" d="M 1613.5,25.5 C 1613.5,73.1667 1613.5,120.833 1613.5,168.5C 1611.3,169.566 1608.97,170.233 1606.5,170.5C 1606.5,122.833 1606.5,75.1667 1606.5,27.5C 1608.7,26.4336 1611.03,25.767 1613.5,25.5 Z"/></g>
<g><path style="opacity:0.993" fill="#dfaf5c" d="M 1606.5,27.5 C 1606.5,75.1667 1606.5,122.833 1606.5,170.5C 1605.33,171.345 1604,172.011 1602.5,172.5C 1602.5,124.5 1602.5,76.5 1602.5,28.5C 1603.83,28.1667 1605.17,27.8333 1606.5,27.5 Z"/></g>
<g><path style="opacity:0.993" fill="#dead59" d="M 1602.5,28.5 C 1602.5,76.5 1602.5,124.5 1602.5,172.5C 1598.26,174.121 1593.92,175.454 1589.5,176.5C 1589.5,128.5 1589.5,80.5 1589.5,32.5C 1593.83,31.1667 1598.17,29.8333 1602.5,28.5 Z"/></g>
<g><path style="opacity:0.993" fill="#dcaa54" d="M 1589.5,32.5 C 1589.5,80.5 1589.5,128.5 1589.5,176.5C 1584.15,179.4 1578.49,181.733 1572.5,183.5C 1572.5,135.167 1572.5,86.8333 1572.5,38.5C 1578.17,36.4985 1583.84,34.4985 1589.5,32.5 Z"/></g>
<g><path style="opacity:0.993" fill="#dba750" d="M 1572.5,38.5 C 1572.5,86.8333 1572.5,135.167 1572.5,183.5C 1570.49,185.065 1568.16,186.065 1565.5,186.5C 1565.5,138.167 1565.5,89.8333 1565.5,41.5C 1567.75,40.3052 1570.08,39.3052 1572.5,38.5 Z"/></g>
<g><path style="opacity:0.992" fill="#d9a54c" d="M 1565.5,41.5 C 1565.5,89.8333 1565.5,138.167 1565.5,186.5C 1561.66,188.678 1557.66,190.678 1553.5,192.5C 1553.5,143.833 1553.5,95.1667 1553.5,46.5C 1557.2,44.3213 1561.2,42.6546 1565.5,41.5 Z"/></g>
<g><path style="opacity:0.993" fill="#d8a348" d="M 1553.5,46.5 C 1553.5,95.1667 1553.5,143.833 1553.5,192.5C 1549.75,193.973 1546.08,195.64 1542.5,197.5C 1542.5,148.5 1542.5,99.5 1542.5,50.5C 1546.02,48.7709 1549.69,47.4375 1553.5,46.5 Z"/></g>
<g><path style="opacity:0.993" fill="#d7a245" d="M 1542.5,50.5 C 1542.5,99.5 1542.5,148.5 1542.5,197.5C 1540.5,198.5 1538.5,199.5 1536.5,200.5C 1536.5,151.5 1536.5,102.5 1536.5,53.5C 1538.18,51.9925 1540.18,50.9925 1542.5,50.5 Z"/></g>
<g><path style="opacity:0.993" fill="#d59f41" d="M 1536.5,53.5 C 1536.5,102.5 1536.5,151.5 1536.5,200.5C 1530.96,203.437 1525.29,206.104 1519.5,208.5C 1519.5,159.167 1519.5,109.833 1519.5,60.5C 1524.93,57.5788 1530.6,55.2455 1536.5,53.5 Z"/></g>
<g><path style="opacity:0.992" fill="#d49e3d" d="M 1519.5,60.5 C 1519.5,109.833 1519.5,159.167 1519.5,208.5C 1518.71,209.401 1517.71,210.068 1516.5,210.5C 1516.5,160.833 1516.5,111.167 1516.5,61.5C 1517.39,60.8902 1518.39,60.5569 1519.5,60.5 Z"/></g>
<g><path style="opacity:0.991" fill="#d49d3c" d="M 1516.5,61.5 C 1516.5,111.167 1516.5,160.833 1516.5,210.5C 1515.04,211.737 1513.37,212.737 1511.5,213.5C 1511.5,163.833 1511.5,114.167 1511.5,64.5C 1512.96,63.2632 1514.63,62.2632 1516.5,61.5 Z"/></g>
<g><path style="opacity:0.994" fill="#d39b3a" d="M 1511.5,64.5 C 1511.5,114.167 1511.5,163.833 1511.5,213.5C 1508.34,214.913 1505.34,216.58 1502.5,218.5C 1502.5,168.5 1502.5,118.5 1502.5,68.5C 1505.38,66.8946 1508.38,65.5612 1511.5,64.5 Z"/></g>
<g><path style="opacity:0.993" fill="#d19834" d="M 1502.5,68.5 C 1502.5,118.5 1502.5,168.5 1502.5,218.5C 1495.82,222.195 1489.15,225.862 1482.5,229.5C 1482.5,179.167 1482.5,128.833 1482.5,78.5C 1488.94,74.7277 1495.61,71.3944 1502.5,68.5 Z"/></g>
<g><path style="opacity:0.992" fill="#cf9630" d="M 1482.5,78.5 C 1482.5,128.833 1482.5,179.167 1482.5,229.5C 1480.38,231.4 1478.05,233.066 1475.5,234.5C 1475.5,183.833 1475.5,133.167 1475.5,82.5C 1477.64,80.9291 1479.97,79.5957 1482.5,78.5 Z"/></g>
<g><path style="opacity:0.993" fill="#cf942d" d="M 1475.5,82.5 C 1475.5,133.167 1475.5,183.833 1475.5,234.5C 1473.17,235.833 1470.83,237.167 1468.5,238.5C 1468.5,187.833 1468.5,137.167 1468.5,86.5C 1470.34,84.412 1472.67,83.0787 1475.5,82.5 Z"/></g>
<g><path style="opacity:0.992" fill="#cd942b" d="M 1468.5,86.5 C 1468.5,137.167 1468.5,187.833 1468.5,238.5C 1467.71,239.401 1466.71,240.068 1465.5,240.5C 1465.5,189.5 1465.5,138.5 1465.5,87.5C 1466.39,86.8902 1467.39,86.5569 1468.5,86.5 Z"/></g>
<g><path style="opacity:0.992" fill="#cd9128" d="M 1465.5,87.5 C 1465.5,138.5 1465.5,189.5 1465.5,240.5C 1460.04,244.402 1454.37,248.069 1448.5,251.5C 1448.5,200.167 1448.5,148.833 1448.5,97.5C 1454,93.9145 1459.67,90.5812 1465.5,87.5 Z"/></g>
<g><path style="opacity:0.993" fill="#cc9024" d="M 1448.5,97.5 C 1448.5,148.833 1448.5,200.167 1448.5,251.5C 1447.1,252.89 1445.43,253.89 1443.5,254.5C 1443.5,203.167 1443.5,151.833 1443.5,100.5C 1445,99.2485 1446.67,98.2485 1448.5,97.5 Z"/></g>
<g><path style="opacity:0.992" fill="#ca8e21" d="M 1443.5,100.5 C 1443.5,151.833 1443.5,203.167 1443.5,254.5C 1439.39,258.064 1435.05,261.397 1430.5,264.5C 1430.5,212.5 1430.5,160.5 1430.5,108.5C 1434.67,105.583 1439,102.916 1443.5,100.5 Z"/></g>
<g><path style="opacity:0.992" fill="#c88b1c" d="M 1430.5,108.5 C 1430.5,160.5 1430.5,212.5 1430.5,264.5C 1424.5,268.833 1418.5,273.167 1412.5,277.5C 1412.5,225.167 1412.5,172.833 1412.5,120.5C 1418.21,116.141 1424.21,112.141 1430.5,108.5 Z"/></g>
<g><path style="opacity:0.995" fill="#c88918" d="M 1412.5,120.5 C 1412.5,172.833 1412.5,225.167 1412.5,277.5C 1411.5,278.167 1410.5,278.833 1409.5,279.5C 1409.5,227.167 1409.5,174.833 1409.5,122.5C 1410.29,121.599 1411.29,120.932 1412.5,120.5 Z"/></g>
<g><path style="opacity:0.992" fill="#c68715" d="M 1409.5,122.5 C 1409.5,174.833 1409.5,227.167 1409.5,279.5C 1404.14,284.186 1398.48,288.519 1392.5,292.5C 1392.5,239.833 1392.5,187.167 1392.5,134.5C 1397.6,129.775 1403.27,125.775 1409.5,122.5 Z"/></g>
<g><path style="opacity:0.992" fill="#c48411" d="M 1392.5,134.5 C 1392.5,187.167 1392.5,239.833 1392.5,292.5C 1387.72,296.729 1382.72,300.729 1377.5,304.5C 1377.5,251.167 1377.5,197.833 1377.5,144.5C 1382.36,140.908 1387.36,137.575 1392.5,134.5 Z"/></g>
<g><path style="opacity:0.99" fill="#c28312" d="M 1377.5,144.5 C 1377.5,197.833 1377.5,251.167 1377.5,304.5C 1376.83,305.833 1375.83,306.833 1374.5,307.5C 1374.5,254.167 1374.5,200.833 1374.5,147.5C 1375.17,146.167 1376.17,145.167 1377.5,144.5 Z"/></g>
<g><path style="opacity:0.992" fill="#be8114" d="M 1374.5,147.5 C 1374.5,200.833 1374.5,254.167 1374.5,307.5C 1367.46,313.878 1360.12,319.878 1352.5,325.5C 1352.5,271.5 1352.5,217.5 1352.5,163.5C 1359.55,157.787 1366.88,152.454 1374.5,147.5 Z"/></g>
<g><path style="opacity:0.992" fill="#b97f17" d="M 1352.5,163.5 C 1352.5,217.5 1352.5,271.5 1352.5,325.5C 1348.26,330.289 1343.59,334.622 1338.5,338.5C 1338.5,283.833 1338.5,229.167 1338.5,174.5C 1343.14,170.864 1347.81,167.197 1352.5,163.5 Z"/></g>
<g><path style="opacity:0.992" fill="#b67d19" d="M 1338.5,174.5 C 1338.5,229.167 1338.5,283.833 1338.5,338.5C 1335.53,341.138 1332.53,343.805 1329.5,346.5C 1329.5,291.833 1329.5,237.167 1329.5,182.5C 1331.89,179.139 1334.89,176.472 1338.5,174.5 Z"/></g>
<g><path style="opacity:0.99" fill="#b47d1a" d="M 1329.5,182.5 C 1329.5,237.167 1329.5,291.833 1329.5,346.5C 1327.83,348.833 1325.83,350.833 1323.5,352.5C 1323.5,297.167 1323.5,241.833 1323.5,186.5C 1325.25,184.748 1327.25,183.415 1329.5,182.5 Z"/></g>
<g><path style="opacity:0.991" fill="#b17b1c" d="M 1323.5,186.5 C 1323.5,241.833 1323.5,297.167 1323.5,352.5C 1316.83,358.833 1310.17,365.167 1303.5,371.5C 1303.5,315.5 1303.5,259.5 1303.5,203.5C 1310.14,197.863 1316.81,192.196 1323.5,186.5 Z"/></g>
<g><path style="opacity:0.993" fill="#ac791e" d="M 1303.5,203.5 C 1303.5,259.5 1303.5,315.5 1303.5,371.5C 1299.19,375.472 1294.86,379.472 1290.5,383.5C 1290.5,327.5 1290.5,271.5 1290.5,215.5C 1294.6,211.277 1298.94,207.277 1303.5,203.5 Z"/></g>
<g><path style="opacity:0.994" fill="#a97720" d="M 1290.5,215.5 C 1290.5,271.5 1290.5,327.5 1290.5,383.5C 1287.17,387.5 1283.5,391.167 1279.5,394.5C 1279.5,338.167 1279.5,281.833 1279.5,225.5C 1282.54,221.456 1286.21,218.123 1290.5,215.5 Z"/></g>
<g><path style="opacity:0.996" fill="#a77720" d="M 1279.5,225.5 C 1279.5,281.833 1279.5,338.167 1279.5,394.5C 1279.17,395.5 1278.5,396.167 1277.5,396.5C 1277.5,339.833 1277.5,283.167 1277.5,226.5C 1278.17,226.167 1278.83,225.833 1279.5,225.5 Z"/></g>
<g><path style="opacity:0.991" fill="#a57522" d="M 1277.5,226.5 C 1277.5,283.167 1277.5,339.833 1277.5,396.5C 1271.2,404.466 1264.2,411.799 1256.5,418.5C 1256.5,361.167 1256.5,303.833 1256.5,246.5C 1263.47,239.861 1270.47,233.194 1277.5,226.5 Z"/></g>
<g><path style="opacity:0.992" fill="#a17325" d="M 1256.5,246.5 C 1256.5,303.833 1256.5,361.167 1256.5,418.5C 1254.55,422.12 1251.88,425.12 1248.5,427.5C 1248.5,369.833 1248.5,312.167 1248.5,254.5C 1250.83,251.5 1253.5,248.833 1256.5,246.5 Z"/></g>
<g><path style="opacity:0.991" fill="#9e7126" d="M 1248.5,254.5 C 1248.5,312.167 1248.5,369.833 1248.5,427.5C 1243.54,434.131 1237.87,440.131 1231.5,445.5C 1231.5,387.167 1231.5,328.833 1231.5,270.5C 1236.54,264.462 1242.2,259.129 1248.5,254.5 Z"/></g>
<g><path style="opacity:0.987" fill="#9b7127" d="M 1231.5,270.5 C 1231.5,328.833 1231.5,387.167 1231.5,445.5C 1231.57,447.027 1230.91,448.027 1229.5,448.5C 1229.5,389.833 1229.5,331.167 1229.5,272.5C 1229.83,271.5 1230.5,270.833 1231.5,270.5 Z"/></g>
<g><path style="opacity:0.991" fill="#986f29" d="M 1229.5,272.5 C 1229.5,331.167 1229.5,389.833 1229.5,448.5C 1221.47,457.526 1213.47,466.526 1205.5,475.5C 1205.5,416.167 1205.5,356.833 1205.5,297.5C 1213.53,289.14 1221.53,280.807 1229.5,272.5 Z"/></g>
<g><path style="opacity:0.991" fill="#966d2c" d="M 1205.5,297.5 C 1205.5,356.833 1205.5,416.167 1205.5,475.5C 1204.83,476.833 1203.83,477.833 1202.5,478.5C 1202.5,419.167 1202.5,359.833 1202.5,300.5C 1203.17,299.167 1204.17,298.167 1205.5,297.5 Z"/></g>
<g><path style="opacity:0.991" fill="#926b2d" d="M 1202.5,300.5 C 1202.5,359.833 1202.5,419.167 1202.5,478.5C 1194.85,488.153 1186.85,497.486 1178.5,506.5C 1178.5,446.5 1178.5,386.5 1178.5,326.5C 1186.16,317.507 1194.16,308.84 1202.5,300.5 Z"/></g>
<g><path style="opacity:0.991" fill="#8d6930" d="M 1178.5,326.5 C 1178.5,386.5 1178.5,446.5 1178.5,506.5C 1172.87,514.129 1166.87,521.463 1160.5,528.5C 1160.5,467.833 1160.5,407.167 1160.5,346.5C 1166.16,339.509 1172.16,332.843 1178.5,326.5 Z"/></g>
<g><path style="opacity:0.99" fill="#8a6732" d="M 1160.5,346.5 C 1160.5,407.167 1160.5,467.833 1160.5,528.5C 1157.85,532.482 1154.85,536.149 1151.5,539.5C 1151.5,478.833 1151.5,418.167 1151.5,357.5C 1154.13,353.537 1157.13,349.871 1160.5,346.5 Z"/></g>
<g><path style="opacity:0.991" fill="#866534" d="M 1151.5,357.5 C 1151.5,418.167 1151.5,478.833 1151.5,539.5C 1143.18,550.481 1134.52,561.148 1125.5,571.5C 1125.5,510.167 1125.5,448.833 1125.5,387.5C 1133.82,377.179 1142.49,367.179 1151.5,357.5 Z"/></g>
<g><path style="opacity:0.981" fill="#3b405e" d="M 754.5,362.5 C 754.5,378.167 754.5,393.833 754.5,409.5C 742.789,408.048 731.123,408.382 719.5,410.5C 719.5,394.5 719.5,378.5 719.5,362.5C 731.108,361.31 742.775,361.31 754.5,362.5 Z"/></g>
<g><path style="opacity:0.982" fill="#353d62" d="M 711.5,362.5 C 711.5,378.833 711.5,395.167 711.5,411.5C 701.048,414.428 690.714,417.762 680.5,421.5C 680.5,404.167 680.5,386.833 680.5,369.5C 690.713,366.525 701.046,364.191 711.5,362.5 Z"/></g>
<g><path style="opacity:0.983" fill="#373f60" d="M 711.5,362.5 C 714.167,362.5 716.833,362.5 719.5,362.5C 719.5,378.5 719.5,394.5 719.5,410.5C 716.833,410.833 714.167,411.167 711.5,411.5C 711.5,395.167 711.5,378.833 711.5,362.5 Z"/></g>
<g><path style="opacity:0.981" fill="#3d425d" d="M 754.5,362.5 C 756.5,362.833 758.5,363.167 760.5,363.5C 760.5,378.833 760.5,394.167 760.5,409.5C 758.5,409.5 756.5,409.5 754.5,409.5C 754.5,393.833 754.5,378.167 754.5,362.5 Z"/></g>
<g><path style="opacity:0.98" fill="#40435b" d="M 760.5,363.5 C 771.019,365.047 781.352,367.38 791.5,370.5C 791.5,386.5 791.5,402.5 791.5,418.5C 781.477,414.411 771.143,411.411 760.5,409.5C 760.5,394.167 760.5,378.833 760.5,363.5 Z"/></g>
<g><path style="opacity:0.979" fill="#323c64" d="M 680.5,369.5 C 680.5,386.833 680.5,404.167 680.5,421.5C 677.485,423.674 674.151,425.341 670.5,426.5C 670.5,408.833 670.5,391.167 670.5,373.5C 673.683,371.99 677.016,370.657 680.5,369.5 Z"/></g>
<g><path style="opacity:0.977" fill="#434559" d="M 791.5,370.5 C 793.751,371.695 796.085,372.695 798.5,373.5C 798.5,389.833 798.5,406.167 798.5,422.5C 796.167,421.167 793.833,419.833 791.5,418.5C 791.5,402.5 791.5,386.5 791.5,370.5 Z"/></g>
<g><path style="opacity:0.979" fill="#2e3a66" d="M 670.5,373.5 C 670.5,391.167 670.5,408.833 670.5,426.5C 654.656,435.342 639.322,445.008 624.5,455.5C 624.5,435.167 624.5,414.833 624.5,394.5C 639.094,385.87 654.427,378.87 670.5,373.5 Z"/></g>
<g><path style="opacity:0.977" fill="#464558" d="M 798.5,373.5 C 806.112,376.639 813.446,380.306 820.5,384.5C 820.5,404.5 820.5,424.5 820.5,444.5C 814.861,435.527 807.527,428.194 798.5,422.5C 798.5,406.167 798.5,389.833 798.5,373.5 Z"/></g>
<g><path style="opacity:0.977" fill="#494756" d="M 820.5,384.5 C 825.469,387.478 830.135,390.811 834.5,394.5C 834.5,451.833 834.5,509.167 834.5,566.5C 830.598,573.401 825.931,579.734 820.5,585.5C 820.5,560.833 820.5,536.167 820.5,511.5C 826.976,495.003 828.809,478.003 826,460.5C 824.656,454.967 822.823,449.634 820.5,444.5C 820.5,424.5 820.5,404.5 820.5,384.5 Z"/></g>
<g><path style="opacity:0.991" fill="#826436" d="M 1125.5,387.5 C 1125.5,448.833 1125.5,510.167 1125.5,571.5C 1122.98,575.866 1119.98,579.866 1116.5,583.5C 1116.5,521.833 1116.5,460.167 1116.5,398.5C 1119.15,394.518 1122.15,390.851 1125.5,387.5 Z"/></g>
<g><path style="opacity:0.979" fill="#2b3968" d="M 624.5,394.5 C 624.5,414.833 624.5,435.167 624.5,455.5C 623.5,456.167 622.5,456.833 621.5,457.5C 621.5,437.167 621.5,416.833 621.5,396.5C 622.5,395.833 623.5,395.167 624.5,394.5 Z"/></g>
<g><path style="opacity:0.985" fill="#4c4955" d="M 834.5,394.5 C 848.358,405.221 858.025,418.888 863.5,435.5C 863.5,459.167 863.5,482.833 863.5,506.5C 857.536,528.424 847.87,548.424 834.5,566.5C 834.5,509.167 834.5,451.833 834.5,394.5 Z"/></g>
<g><path style="opacity:0.981" fill="#283769" d="M 621.5,396.5 C 621.5,416.833 621.5,437.167 621.5,457.5C 608.804,466.177 596.138,474.843 583.5,483.5C 583.5,462.5 583.5,441.5 583.5,420.5C 595.829,412 608.496,404 621.5,396.5 Z"/></g>
<g><path style="opacity:0.991" fill="#806237" d="M 1116.5,398.5 C 1116.5,460.167 1116.5,521.833 1116.5,583.5C 1112.82,588.206 1109.16,592.872 1105.5,597.5C 1105.5,535.833 1105.5,474.167 1105.5,412.5C 1108.7,407.431 1112.36,402.765 1116.5,398.5 Z"/></g>
<g><path style="opacity:0.992" fill="#7d6139" d="M 1105.5,412.5 C 1105.5,474.167 1105.5,535.833 1105.5,597.5C 1101.85,603.14 1097.85,608.473 1093.5,613.5C 1093.5,551.5 1093.5,489.5 1093.5,427.5C 1096.79,421.913 1100.79,416.913 1105.5,412.5 Z"/></g>
<g><path style="opacity:0.983" fill="#26366b" d="M 583.5,420.5 C 583.5,441.5 583.5,462.5 583.5,483.5C 580.81,486.185 577.81,488.518 574.5,490.5C 574.5,469.167 574.5,447.833 574.5,426.5C 577.5,424.5 580.5,422.5 583.5,420.5 Z"/></g>
<g><path style="opacity:0.98" fill="#22346c" d="M 574.5,426.5 C 574.5,447.833 574.5,469.167 574.5,490.5C 556.524,504.803 538.524,519.136 520.5,533.5C 520.5,510.167 520.5,486.833 520.5,463.5C 537.951,450.385 555.951,438.052 574.5,426.5 Z"/></g>
<g><path style="opacity:0.991" fill="#795f3b" d="M 1093.5,427.5 C 1093.5,489.5 1093.5,551.5 1093.5,613.5C 1084.73,626.049 1075.73,638.382 1066.5,650.5C 1066.5,587.833 1066.5,525.167 1066.5,462.5C 1075.12,450.543 1084.12,438.876 1093.5,427.5 Z"/></g>
<g><path style="opacity:0.904" fill="#4f4b52" d="M 863.5,435.5 C 868.041,446.427 870.041,457.927 869.5,470C 869.697,482.649 867.697,494.816 863.5,506.5C 863.5,482.833 863.5,459.167 863.5,435.5 Z"/></g>
<g><path style="opacity:0.985" fill="#04247e" d="M 2427.5,461.5 C 2450.86,461.138 2474.19,461.638 2497.5,463C 2529.08,465.079 2557.74,475.079 2583.5,493C 2599.11,506.386 2608.95,523.219 2613,543.5C 2618.94,572.346 2616.27,600.346 2605,627.5C 2593.95,646.882 2578.11,661.049 2557.5,670C 2536.29,678.442 2514.29,683.442 2491.5,685C 2458.33,687.816 2425.33,686.483 2392.5,681C 2318.18,665.927 2287.35,620.76 2300,545.5C 2305.99,515.192 2322.82,493.359 2350.5,480C 2375.23,469.426 2400.89,463.259 2427.5,461.5 Z M 2435.5,518.5 C 2457.56,518.024 2479.56,518.858 2501.5,521C 2533.18,524.175 2548.84,541.675 2548.5,573.5C 2548.98,587.59 2545.15,600.257 2537,611.5C 2531.37,616.733 2524.87,620.566 2517.5,623C 2507.35,625.784 2497.02,627.45 2486.5,628C 2463.14,628.875 2439.81,628.542 2416.5,627C 2377.12,623.469 2360.28,601.969 2366,562.5C 2368.65,538.846 2381.82,525.346 2405.5,522C 2415.61,520.5 2425.61,519.333 2435.5,518.5 Z"/></g>
<g><path style="opacity:0.985" fill="#04247e" d="M 3906.5,461.5 C 3925.84,461.333 3945.17,461.5 3964.5,462C 3995.78,463.152 4025.12,471.152 4052.5,486C 4073.51,499.691 4086.67,518.857 4092,543.5C 4096.29,565.193 4095.96,586.86 4091,608.5C 4082.4,637.551 4064.24,658.051 4036.5,670C 4015.29,678.442 3993.29,683.442 3970.5,685C 3937.33,687.816 3904.33,686.483 3871.5,681C 3799.41,667.552 3768.24,624.386 3778,551.5C 3783.08,517.796 3800.92,493.63 3831.5,479C 3855.67,469.136 3880.67,463.302 3906.5,461.5 Z M 3914.5,518.5 C 3936.56,518.024 3958.56,518.858 3980.5,521C 4012.16,524.157 4027.82,541.657 4027.5,573.5C 4027.97,587.575 4024.14,600.242 4016,611.5C 4010.37,616.733 4003.87,620.566 3996.5,623C 3986.35,625.784 3976.02,627.45 3965.5,628C 3942.14,628.875 3918.81,628.542 3895.5,627C 3882.38,626.181 3870.38,622.181 3859.5,615C 3850.86,607.112 3846.03,597.278 3845,585.5C 3842.68,569.711 3845.02,554.711 3852,540.5C 3860.29,530.098 3871.12,523.932 3884.5,522C 3894.61,520.5 3904.61,519.333 3914.5,518.5 Z"/></g>
<g><path style="opacity:0.99" fill="#765d3d" d="M 1066.5,462.5 C 1066.5,525.167 1066.5,587.833 1066.5,650.5C 1065.19,653.135 1063.52,655.469 1061.5,657.5C 1061.5,594.5 1061.5,531.5 1061.5,468.5C 1062.7,466.091 1064.37,464.091 1066.5,462.5 Z"/></g>
<g><path style="opacity:0.982" fill="#1e326f" d="M 520.5,463.5 C 520.5,486.833 520.5,510.167 520.5,533.5C 513.457,539.878 506.124,545.878 498.5,551.5C 498.5,527.833 498.5,504.167 498.5,480.5C 505.433,474.361 512.767,468.694 520.5,463.5 Z"/></g>
<g><path style="opacity:0.987" fill="#04247e" d="M 1327.5,464.5 C 1411.5,464.167 1495.5,464.5 1579.5,465.5C 1565.05,484.243 1550.71,503.077 1536.5,522C 1489.5,522.5 1442.5,522.667 1395.5,522.5C 1395.5,530.833 1395.5,539.167 1395.5,547.5C 1452.83,547.333 1510.17,547.5 1567.5,548C 1554.83,564.333 1542.17,580.667 1529.5,597C 1484.83,597.5 1440.17,597.667 1395.5,597.5C 1395.5,606.833 1395.5,616.167 1395.5,625.5C 1457.17,625.167 1518.84,625.5 1580.5,626.5C 1566.36,645.143 1552.02,663.643 1537.5,682C 1467.5,682.5 1397.5,682.667 1327.5,682.5C 1327.5,609.833 1327.5,537.167 1327.5,464.5 Z"/></g>
<g><path style="opacity:0.981" fill="#04247e" d="M 1746.5,464.5 C 1801.83,464.333 1857.17,464.5 1912.5,465C 1898.29,483.923 1883.95,502.757 1869.5,521.5C 1828.84,522.333 1788.17,522.833 1747.5,523C 1727.83,525.57 1712.67,535.07 1702,551.5C 1689.46,585.254 1699.96,608.754 1733.5,622C 1737.8,623.158 1742.13,624.158 1746.5,625C 1801.84,625.167 1857.17,625.667 1912.5,626.5C 1898.36,645.143 1884.02,663.643 1869.5,682C 1826.83,682.667 1784.17,682.667 1741.5,682C 1706.66,678.661 1677.16,664.494 1653,639.5C 1627,606.836 1621.33,570.836 1636,531.5C 1648.34,506.159 1667.51,487.993 1693.5,477C 1710.68,470.201 1728.35,466.034 1746.5,464.5 Z"/></g>
<g><path style="opacity:0.984" fill="#04247e" d="M 1966.5,464.5 C 1989.5,464.5 2012.5,464.5 2035.5,464.5C 2035.5,490.167 2035.5,515.833 2035.5,541.5C 2078.17,541.5 2120.83,541.5 2163.5,541.5C 2163.5,515.833 2163.5,490.167 2163.5,464.5C 2186.17,464.5 2208.83,464.5 2231.5,464.5C 2231.5,537.167 2231.5,609.833 2231.5,682.5C 2208.83,682.5 2186.17,682.5 2163.5,682.5C 2163.5,654.833 2163.5,627.167 2163.5,599.5C 2120.83,599.5 2078.17,599.5 2035.5,599.5C 2035.5,627.167 2035.5,654.833 2035.5,682.5C 2012.5,682.5 1989.5,682.5 1966.5,682.5C 1966.5,609.833 1966.5,537.167 1966.5,464.5 Z"/></g>
<g><path style="opacity:0.983" fill="#04247e" d="M 2681.5,464.5 C 2765.83,464.333 2850.17,464.5 2934.5,465C 2920.22,484.285 2905.55,503.285 2890.5,522C 2843.83,522.5 2797.17,522.667 2750.5,522.5C 2750.5,530.833 2750.5,539.167 2750.5,547.5C 2807.83,547.333 2865.17,547.5 2922.5,548C 2909.5,564.333 2896.5,580.667 2883.5,597C 2839.17,597.5 2794.83,597.667 2750.5,597.5C 2750.5,606.833 2750.5,616.167 2750.5,625.5C 2811.83,625.5 2873.17,625.5 2934.5,625.5C 2934.65,626.552 2934.48,627.552 2934,628.5C 2920.17,646.333 2906.33,664.167 2892.5,682C 2822.17,682.5 2751.83,682.667 2681.5,682.5C 2681.5,609.833 2681.5,537.167 2681.5,464.5 Z"/></g>
<g><path style="opacity:0.982" fill="#04247e" d="M 3064.5,464.5 C 3132.17,464.167 3199.84,464.5 3267.5,465.5C 3252.97,484.191 3238.64,503.025 3224.5,522C 3170.5,522.333 3116.5,522.667 3062.5,523C 3051.63,525.909 3048.13,532.742 3052,543.5C 3052.47,544.931 3053.3,546.097 3054.5,547C 3058.52,549.34 3062.85,550.674 3067.5,551C 3114.5,551.333 3161.5,551.667 3208.5,552C 3265.36,558.907 3284.86,589.74 3267,644.5C 3258.68,660.487 3245.84,670.987 3228.5,676C 3219.08,679.151 3209.41,681.151 3199.5,682C 3125.17,682.667 3050.83,682.667 2976.5,682C 2991.02,663.643 3005.36,645.143 3019.5,626.5C 3077.83,625.667 3136.16,625.167 3194.5,625C 3205.55,622.274 3209.38,615.441 3206,604.5C 3204.55,600.512 3201.72,598.012 3197.5,597C 3146.18,595.981 3094.85,594.981 3043.5,594C 2996.76,586.248 2977.92,559.082 2987,512.5C 2992.14,496.035 3002.31,483.868 3017.5,476C 3032.64,469.464 3048.31,465.631 3064.5,464.5 Z"/></g>
<g><path style="opacity:0.977" fill="#04247e" d="M 3514.5,464.5 C 3597.17,464.333 3679.83,464.5 3762.5,465C 3748.22,484.285 3733.55,503.285 3718.5,522C 3692.84,522.5 3667.17,522.667 3641.5,522.5C 3641.5,575.833 3641.5,629.167 3641.5,682.5C 3618.5,682.5 3595.5,682.5 3572.5,682.5C 3572.5,629.167 3572.5,575.833 3572.5,522.5C 3538.5,522.667 3504.5,522.5 3470.5,522C 3485,502.672 3499.67,483.506 3514.5,464.5 Z"/></g>
<g><path style="opacity:0.991" fill="#745d3d" d="M 1061.5,468.5 C 1061.5,531.5 1061.5,594.5 1061.5,657.5C 1060.19,660.135 1058.52,662.469 1056.5,664.5C 1056.5,601.5 1056.5,538.5 1056.5,475.5C 1057.81,472.865 1059.48,470.531 1061.5,468.5 Z"/></g>
<g><path style="opacity:0.991" fill="#725b3f" d="M 1056.5,475.5 C 1056.5,538.5 1056.5,601.5 1056.5,664.5C 1050.64,673.559 1044.31,682.226 1037.5,690.5C 1037.5,627.5 1037.5,564.5 1037.5,501.5C 1043.07,492.267 1049.4,483.6 1056.5,475.5 Z"/></g>
<g><path style="opacity:0.981" fill="#1c3170" d="M 498.5,480.5 C 498.5,504.167 498.5,527.833 498.5,551.5C 494.466,555.536 490.132,559.202 485.5,562.5C 485.5,538.5 485.5,514.5 485.5,490.5C 489.258,486.408 493.591,483.074 498.5,480.5 Z"/></g>
<g><path style="opacity:0.982" fill="#1a3071" d="M 485.5,490.5 C 485.5,514.5 485.5,538.5 485.5,562.5C 473.828,574.171 461.828,585.505 449.5,596.5C 449.5,570.5 449.5,544.5 449.5,518.5C 461.208,508.791 473.208,499.458 485.5,490.5 Z"/></g>
<g><path style="opacity:0.991" fill="#6d5942" d="M 1037.5,501.5 C 1037.5,564.5 1037.5,627.5 1037.5,690.5C 1028.32,704.196 1018.65,717.529 1008.5,730.5C 1008.5,667.5 1008.5,604.5 1008.5,541.5C 1017.4,527.602 1027.07,514.269 1037.5,501.5 Z"/></g>
<g><path style="opacity:0.971" fill="#464558" d="M 820.5,511.5 C 820.5,536.167 820.5,560.833 820.5,585.5C 813.882,594.452 806.549,602.785 798.5,610.5C 798.5,590.833 798.5,571.167 798.5,551.5C 806.867,538.769 814.2,525.436 820.5,511.5 Z"/></g>
<g><path style="opacity:0.981" fill="#152d74" d="M 449.5,518.5 C 449.5,544.5 449.5,570.5 449.5,596.5C 425.443,620.556 401.776,644.889 378.5,669.5C 378.5,640.5 378.5,611.5 378.5,582.5C 386.272,575.23 393.938,567.73 401.5,560C 417.372,545.957 433.372,532.124 449.5,518.5 Z"/></g>
<g><path style="opacity:0.99" fill="#6a5744" d="M 1008.5,541.5 C 1008.5,604.5 1008.5,667.5 1008.5,730.5C 1007.3,732.909 1005.63,734.909 1003.5,736.5C 1003.5,673.833 1003.5,611.167 1003.5,548.5C 1004.81,545.865 1006.48,543.531 1008.5,541.5 Z"/></g>
<g><path style="opacity:0.991" fill="#665646" d="M 1003.5,548.5 C 1003.5,611.167 1003.5,673.833 1003.5,736.5C 994.235,750.094 984.235,763.094 973.5,775.5C 973.5,714.5 973.5,653.5 973.5,592.5C 983.142,577.536 993.142,562.87 1003.5,548.5 Z"/></g>
<g><path style="opacity:0.978" fill="#434559" d="M 798.5,551.5 C 798.5,571.167 798.5,590.833 798.5,610.5C 796.5,613.167 794.167,615.5 791.5,617.5C 791.5,598.833 791.5,580.167 791.5,561.5C 793.062,557.608 795.395,554.275 798.5,551.5 Z"/></g>
<g><path style="opacity:0.972" fill="#41435b" d="M 791.5,561.5 C 791.5,580.167 791.5,598.833 791.5,617.5C 782.097,628.239 771.764,637.905 760.5,646.5C 760.5,630.167 760.5,613.833 760.5,597.5C 771.316,585.833 781.65,573.833 791.5,561.5 Z"/></g>
<g><path style="opacity:0.983" fill="#112c76" d="M 378.5,582.5 C 378.5,611.5 378.5,640.5 378.5,669.5C 373.878,676.398 368.544,682.731 362.5,688.5C 362.5,658.167 362.5,627.833 362.5,597.5C 367.807,592.528 373.14,587.528 378.5,582.5 Z"/></g>
<g><path style="opacity:0.99" fill="#615349" d="M 973.5,592.5 C 973.5,653.5 973.5,714.5 973.5,775.5C 966.207,785.46 958.54,795.127 950.5,804.5C 950.5,745.167 950.5,685.833 950.5,626.5C 958.18,615.13 965.846,603.796 973.5,592.5 Z"/></g>
<g><path style="opacity:0.98" fill="#112b77" d="M 362.5,597.5 C 362.5,627.833 362.5,658.167 362.5,688.5C 361.488,689.872 360.488,691.205 359.5,692.5C 359.5,661.833 359.5,631.167 359.5,600.5C 360.167,599.167 361.167,598.167 362.5,597.5 Z"/></g>
<g><path style="opacity:0.974" fill="#3d425d" d="M 760.5,597.5 C 760.5,613.833 760.5,630.167 760.5,646.5C 758.833,648.833 756.833,650.833 754.5,652.5C 754.5,636.5 754.5,620.5 754.5,604.5C 756.529,602.142 758.529,599.808 760.5,597.5 Z"/></g>
<g><path style="opacity:0.983" fill="#0e2a78" d="M 359.5,600.5 C 359.5,631.167 359.5,661.833 359.5,692.5C 333.526,723.782 310.526,757.115 290.5,792.5C 290.5,753.833 290.5,715.167 290.5,676.5C 298.053,666.103 306.219,656.103 315,646.5C 329.7,630.967 344.534,615.634 359.5,600.5 Z"/></g>
<g><path style="opacity:0.97" fill="#3b405e" d="M 754.5,604.5 C 754.5,620.5 754.5,636.5 754.5,652.5C 743.15,662.514 731.483,672.181 719.5,681.5C 719.5,666.833 719.5,652.167 719.5,637.5C 730.934,626.278 742.601,615.278 754.5,604.5 Z"/></g>
<g><path style="opacity:0.991" fill="#5e524a" d="M 950.5,626.5 C 950.5,685.833 950.5,745.167 950.5,804.5C 947.848,808.482 944.848,812.149 941.5,815.5C 941.5,756.833 941.5,698.167 941.5,639.5C 944.266,634.955 947.266,630.622 950.5,626.5 Z"/></g>
<g><path style="opacity:0.967" fill="#373f60" d="M 719.5,637.5 C 719.5,652.167 719.5,666.833 719.5,681.5C 716.833,683.5 714.167,685.5 711.5,687.5C 711.5,673.167 711.5,658.833 711.5,644.5C 713.751,641.705 716.418,639.372 719.5,637.5 Z"/></g>
<g><path style="opacity:0.99" fill="#5a504d" d="M 941.5,639.5 C 941.5,698.167 941.5,756.833 941.5,815.5C 931.298,828.577 920.632,841.244 909.5,853.5C 909.5,797.5 909.5,741.5 909.5,685.5C 920.179,670.129 930.846,654.796 941.5,639.5 Z"/></g>
<g><path style="opacity:0.968" fill="#353d62" d="M 711.5,644.5 C 711.5,658.833 711.5,673.167 711.5,687.5C 701.44,694.891 691.107,701.891 680.5,708.5C 680.5,695.5 680.5,682.5 680.5,669.5C 690.977,661.417 701.31,653.084 711.5,644.5 Z"/></g>
<g><path style="opacity:0.97" fill="#323c64" d="M 680.5,669.5 C 680.5,682.5 680.5,695.5 680.5,708.5C 677.429,710.898 674.095,712.898 670.5,714.5C 670.5,701.833 670.5,689.167 670.5,676.5C 673.833,674.167 677.167,671.833 680.5,669.5 Z"/></g>
<g><path style="opacity:0.987" fill="#09277a" d="M 290.5,676.5 C 290.5,715.167 290.5,753.833 290.5,792.5C 288.118,798.266 285.451,803.932 282.5,809.5C 285.044,809.949 287.71,809.949 290.5,809.5C 290.5,815.833 290.5,822.167 290.5,828.5C 284.955,829.205 279.288,830.039 273.5,831C 254.59,874.299 247.756,919.465 253,966.5C 255.653,984.131 261.653,1000.46 271,1015.5C 276.806,1022.15 283.306,1027.82 290.5,1032.5C 290.5,1062.17 290.5,1091.83 290.5,1121.5C 206.267,1084.31 169.434,1019.64 180,927.5C 181.216,895.423 187.049,864.257 197.5,834C 186.505,833.5 175.505,833.333 164.5,833.5C 164.5,828.5 164.5,823.5 164.5,818.5C 176.835,818.121 189.169,817.621 201.5,817C 202.416,816.626 203.25,816.126 204,815.5C 225.808,764.498 254.642,718.165 290.5,676.5 Z"/></g>
<g><path style="opacity:0.966" fill="#2e3a65" d="M 670.5,676.5 C 670.5,689.167 670.5,701.833 670.5,714.5C 655.851,724.164 640.517,732.831 624.5,740.5C 624.5,729.167 624.5,717.833 624.5,706.5C 640.175,696.998 655.508,686.998 670.5,676.5 Z"/></g>
<g><path style="opacity:0.99" fill="#554d50" d="M 909.5,685.5 C 909.5,741.5 909.5,797.5 909.5,853.5C 901.546,863.789 892.879,873.455 883.5,882.5C 883.5,828.833 883.5,775.167 883.5,721.5C 891.811,709.197 900.478,697.197 909.5,685.5 Z"/></g>
<g><path style="opacity:0.968" fill="#2b3968" d="M 624.5,706.5 C 624.5,717.833 624.5,729.167 624.5,740.5C 623.609,741.11 622.609,741.443 621.5,741.5C 621.5,730.5 621.5,719.5 621.5,708.5C 622.29,707.599 623.29,706.932 624.5,706.5 Z"/></g>
<g><path style="opacity:0.966" fill="#283769" d="M 621.5,708.5 C 621.5,719.5 621.5,730.5 621.5,741.5C 609.168,748.063 596.502,754.063 583.5,759.5C 583.5,749.167 583.5,738.833 583.5,728.5C 596.194,721.821 608.86,715.154 621.5,708.5 Z"/></g>
<g><path style="opacity:0.989" fill="#524c51" d="M 883.5,721.5 C 883.5,775.167 883.5,828.833 883.5,882.5C 881.547,886.12 878.881,889.12 875.5,891.5C 875.5,838.5 875.5,785.5 875.5,732.5C 877.934,728.618 880.601,724.952 883.5,721.5 Z"/></g>
<g><path style="opacity:0.968" fill="#26366b" d="M 583.5,728.5 C 583.5,738.833 583.5,749.167 583.5,759.5C 580.618,761.108 577.618,762.441 574.5,763.5C 574.5,753.5 574.5,743.5 574.5,733.5C 577.304,731.595 580.304,729.929 583.5,728.5 Z"/></g>
<g><path style="opacity:0.99" fill="#504b52" d="M 875.5,732.5 C 875.5,785.5 875.5,838.5 875.5,891.5C 872.189,896.445 868.189,900.778 863.5,904.5C 863.5,852.5 863.5,800.5 863.5,748.5C 867.147,742.86 871.147,737.527 875.5,732.5 Z"/></g>
<g><path style="opacity:0.964" fill="#22346c" d="M 574.5,733.5 C 574.5,743.5 574.5,753.5 574.5,763.5C 556.736,770.755 538.736,777.422 520.5,783.5C 520.5,774.167 520.5,764.833 520.5,755.5C 538.738,748.713 556.738,741.38 574.5,733.5 Z"/></g>
<g><path style="opacity:0.989" fill="#4c4954" d="M 863.5,748.5 C 863.5,800.5 863.5,852.5 863.5,904.5C 853.806,914.527 844.139,924.527 834.5,934.5C 834.5,884.833 834.5,835.167 834.5,785.5C 843.816,772.856 853.483,760.522 863.5,748.5 Z"/></g>
<g><path style="opacity:0.961" fill="#1e326f" d="M 520.5,755.5 C 520.5,764.833 520.5,774.167 520.5,783.5C 513.183,785.83 505.85,788.164 498.5,790.5C 498.5,781.5 498.5,772.5 498.5,763.5C 505.915,761.029 513.248,758.362 520.5,755.5 Z"/></g>
<g><path style="opacity:0.965" fill="#1c3170" d="M 498.5,763.5 C 498.5,772.5 498.5,781.5 498.5,790.5C 494.151,791.839 489.818,793.172 485.5,794.5C 485.5,785.833 485.5,777.167 485.5,768.5C 489.684,766.657 494.018,764.99 498.5,763.5 Z"/></g>
<g><path style="opacity:0.964" fill="#1a3071" d="M 485.5,768.5 C 485.5,777.167 485.5,785.833 485.5,794.5C 473.584,797.812 461.584,800.812 449.5,803.5C 449.5,795.167 449.5,786.833 449.5,778.5C 461.558,775.37 473.558,772.036 485.5,768.5 Z"/></g>
<g><path style="opacity:0.961" fill="#152d74" d="M 449.5,778.5 C 449.5,786.833 449.5,795.167 449.5,803.5C 426.021,809.396 402.354,814.396 378.5,818.5C 378.5,810.833 378.5,803.167 378.5,795.5C 402.458,790.927 426.124,785.26 449.5,778.5 Z"/></g>
<g><path style="opacity:0.99" fill="#494756" d="M 834.5,785.5 C 834.5,835.167 834.5,884.833 834.5,934.5C 829.859,938.805 825.193,943.139 820.5,947.5C 820.5,899.167 820.5,850.833 820.5,802.5C 824.938,796.61 829.605,790.943 834.5,785.5 Z"/></g>
<g><path style="opacity:0.958" fill="#112c76" d="M 378.5,795.5 C 378.5,803.167 378.5,810.833 378.5,818.5C 373.153,819.073 367.82,819.74 362.5,820.5C 362.5,813.167 362.5,805.833 362.5,798.5C 367.889,797.755 373.222,796.755 378.5,795.5 Z"/></g>
<g><path style="opacity:0.955" fill="#112b77" d="M 362.5,798.5 C 362.5,805.833 362.5,813.167 362.5,820.5C 361.391,820.557 360.391,820.89 359.5,821.5C 359.5,814.167 359.5,806.833 359.5,799.5C 360.391,798.89 361.391,798.557 362.5,798.5 Z"/></g>
<g><path style="opacity:0.961" fill="#0e2a77" d="M 359.5,799.5 C 359.5,806.833 359.5,814.167 359.5,821.5C 336.576,824.574 313.576,826.907 290.5,828.5C 290.5,822.167 290.5,815.833 290.5,809.5C 313.582,806.726 336.582,803.393 359.5,799.5 Z"/></g>
<g><path style="opacity:0.989" fill="#464558" d="M 820.5,802.5 C 820.5,850.833 820.5,899.167 820.5,947.5C 813.799,955.202 806.466,962.202 798.5,968.5C 798.5,921.833 798.5,875.167 798.5,828.5C 805.487,819.515 812.821,810.848 820.5,802.5 Z"/></g>
<g><path style="opacity:0.988" fill="#deb266" d="M 2379.5,888.5 C 2379.5,947.167 2379.5,1005.83 2379.5,1064.5C 2356,1021.51 2333,978.18 2310.5,934.5C 2303.1,965.44 2295.1,996.107 2286.5,1026.5C 2286.5,954.5 2286.5,882.5 2286.5,810.5C 2314.41,804.41 2335.91,813.41 2351,837.5C 2360.51,854.527 2370.01,871.527 2379.5,888.5 Z"/></g>
<g><path style="opacity:0.988" fill="#d8a752" d="M 2620.5,811.5 C 2620.5,891.5 2620.5,971.5 2620.5,1051.5C 2609.09,1012.52 2598.59,973.185 2589,933.5C 2586.73,938.387 2584.23,943.054 2581.5,947.5C 2581.5,902.5 2581.5,857.5 2581.5,812.5C 2594.49,807.674 2607.49,807.341 2620.5,811.5 Z"/></g>
<g><path style="opacity:0.984" fill="#d49d3c" d="M 3871.5,808.5 C 3871.5,835.833 3871.5,863.167 3871.5,890.5C 3865.83,890.5 3860.17,890.5 3854.5,890.5C 3854.5,863.5 3854.5,836.5 3854.5,809.5C 3860.07,808.548 3865.74,808.214 3871.5,808.5 Z"/></g>
<g><path style="opacity:0.985" fill="#d49e3d" d="M 3871.5,808.5 C 3873.83,808.5 3876.17,808.5 3878.5,808.5C 3878.5,835.833 3878.5,863.167 3878.5,890.5C 3876.17,890.5 3873.83,890.5 3871.5,890.5C 3871.5,863.167 3871.5,835.833 3871.5,808.5 Z"/></g>
<g><path style="opacity:0.988" fill="#d59f41" d="M 3878.5,808.5 C 3895.71,808.563 3912.71,809.563 3929.5,811.5C 3929.5,838.5 3929.5,865.5 3929.5,892.5C 3912.57,890.806 3895.57,890.14 3878.5,890.5C 3878.5,863.167 3878.5,835.833 3878.5,808.5 Z"/></g>
<g><path style="opacity:0.998" fill="#e2b366" d="M 4235.5,820.5 C 4235.5,921.5 4235.5,1022.5 4235.5,1123.5C 4220.17,1123.5 4204.83,1123.5 4189.5,1123.5C 4189.5,1018.83 4189.5,914.167 4189.5,809.5C 4206.58,806.34 4221.91,810.006 4235.5,820.5 Z"/></g>
<g><path style="opacity:0.992" fill="#d39b3a" d="M 3854.5,809.5 C 3854.5,836.5 3854.5,863.5 3854.5,890.5C 3845.5,890.786 3836.5,891.119 3827.5,891.5C 3827.5,864.5 3827.5,837.5 3827.5,810.5C 3836.48,809.782 3845.48,809.448 3854.5,809.5 Z"/></g>
<g><path style="opacity:0.998" fill="#e1b161" d="M 4189.5,809.5 C 4189.5,914.167 4189.5,1018.83 4189.5,1123.5C 4180.17,1123.5 4170.83,1123.5 4161.5,1123.5C 4161.5,1024.5 4161.5,925.5 4161.5,826.5C 4168.79,817.554 4178.13,811.887 4189.5,809.5 Z"/></g>
<g><path style="opacity:0.993" fill="#dfb46b" d="M 2286.5,810.5 C 2286.5,882.5 2286.5,954.5 2286.5,1026.5C 2278.32,1058.56 2269.82,1090.56 2261,1122.5C 2258.28,1123.44 2255.45,1123.78 2252.5,1123.5C 2252.5,1027.83 2252.5,932.167 2252.5,836.5C 2259.72,822.547 2271.05,813.88 2286.5,810.5 Z"/></g>
<g><path style="opacity:0.989" fill="#d19834" d="M 3827.5,810.5 C 3827.5,837.5 3827.5,864.5 3827.5,891.5C 3805.91,892.56 3785.91,898.56 3767.5,909.5C 3767.5,879.833 3767.5,850.167 3767.5,820.5C 3787.24,815.655 3807.24,812.322 3827.5,810.5 Z"/></g>
<g><path style="opacity:0.992" fill="#d7a54e" d="M 2620.5,811.5 C 2637.23,816.39 2648.73,827.056 2655,843.5C 2675.13,911.346 2694.63,979.346 2713.5,1047.5C 2713.5,1072.83 2713.5,1098.17 2713.5,1123.5C 2688.82,1123.83 2664.16,1123.5 2639.5,1122.5C 2632.69,1098.94 2626.36,1075.28 2620.5,1051.5C 2620.5,971.5 2620.5,891.5 2620.5,811.5 Z"/></g>
<g><path style="opacity:0.99" fill="#d7a145" d="M 3929.5,811.5 C 3935.63,811.379 3941.63,812.046 3947.5,813.5C 3947.5,840.5 3947.5,867.5 3947.5,894.5C 3941.54,893.506 3935.54,892.839 3929.5,892.5C 3929.5,865.5 3929.5,838.5 3929.5,811.5 Z"/></g>
<g><path style="opacity:0.923" fill="#04257d" d="M -0.5,812.5 C 34.4197,815.829 69.4197,817.829 104.5,818.5C 104.5,822.5 104.5,826.5 104.5,830.5C 69.3353,828.817 34.3353,825.483 -0.5,820.5C -0.5,817.833 -0.5,815.167 -0.5,812.5 Z"/></g>
<g><path style="opacity:0.987" fill="#d9a955" d="M 2581.5,812.5 C 2581.5,857.5 2581.5,902.5 2581.5,947.5C 2569.07,975.224 2555.41,1002.22 2540.5,1028.5C 2540.5,972.167 2540.5,915.833 2540.5,859.5C 2545.65,848.533 2551.82,838.199 2559,828.5C 2565.29,821.369 2572.79,816.035 2581.5,812.5 Z"/></g>
<g><path style="opacity:0.989" fill="#eec881" d="M 1473.5,813.5 C 1473.5,840.833 1473.5,868.167 1473.5,895.5C 1463.16,895.334 1452.83,895.5 1442.5,896C 1423.82,899.184 1417.99,909.684 1425,927.5C 1432.02,934.384 1440.52,937.55 1450.5,937C 1458.16,937.5 1465.83,937.666 1473.5,937.5C 1473.5,958.167 1473.5,978.833 1473.5,999.5C 1452.43,1000.07 1431.43,999.232 1410.5,997C 1348.41,986.25 1321.91,949.75 1331,887.5C 1337.67,858.487 1354.84,838.32 1382.5,827C 1398.86,820.327 1415.86,816.327 1433.5,815C 1446.81,813.901 1460.15,813.401 1473.5,813.5 Z"/></g>
<g><path style="opacity:0.982" fill="#ebc581" d="M 1473.5,813.5 C 1559.17,813.167 1644.84,813.5 1730.5,814.5C 1710.53,841.603 1690.2,868.436 1669.5,895C 1604.17,895.5 1538.83,895.667 1473.5,895.5C 1473.5,868.167 1473.5,840.833 1473.5,813.5 Z"/></g>
<g><path style="opacity:0.983" fill="#e8c281" d="M 1892.5,829.5 C 1892.5,874.5 1892.5,919.5 1892.5,964.5C 1846.15,915.145 1800.48,865.145 1755.5,814.5C 1796.83,813.333 1838.16,813.167 1879.5,814C 1884.04,819.04 1888.38,824.206 1892.5,829.5 Z"/></g>
<g><path style="opacity:0.99" fill="#e3ba77" d="M 2126.5,813.5 C 2126.5,850.5 2126.5,887.5 2126.5,924.5C 2118.55,934.789 2109.88,944.455 2100.5,953.5C 2100.5,908.167 2100.5,862.833 2100.5,817.5C 2101.14,816.518 2101.81,815.518 2102.5,814.5C 2110.47,813.502 2118.47,813.169 2126.5,813.5 Z"/></g>
<g><path style="opacity:0.981" fill="#e2b974" d="M 2126.5,813.5 C 2153.17,813.5 2179.83,813.5 2206.5,813.5C 2206.5,820.5 2206.5,827.5 2206.5,834.5C 2180.18,864.823 2153.51,894.823 2126.5,924.5C 2126.5,887.5 2126.5,850.5 2126.5,813.5 Z"/></g>
<g><path style="opacity:0.882" fill="#e1b76f" d="M 2206.5,813.5 C 2212.51,813.334 2218.51,813.501 2224.5,814C 2219.01,821.323 2213.01,828.157 2206.5,834.5C 2206.5,827.5 2206.5,820.5 2206.5,813.5 Z"/></g>
<g><path style="opacity:0.98" fill="#d39e41" d="M 2873.5,813.5 C 2873.5,840.833 2873.5,868.167 2873.5,895.5C 2846.83,895.5 2820.17,895.5 2793.5,895.5C 2793.5,884.833 2793.5,874.167 2793.5,863.5C 2806.14,847.185 2818.81,830.852 2831.5,814.5C 2845.48,813.501 2859.48,813.167 2873.5,813.5 Z"/></g>
<g><path style="opacity:0.985" fill="#d19d3d" d="M 2873.5,813.5 C 2877.5,813.5 2881.5,813.5 2885.5,813.5C 2885.5,840.833 2885.5,868.167 2885.5,895.5C 2881.5,895.5 2877.5,895.5 2873.5,895.5C 2873.5,868.167 2873.5,840.833 2873.5,813.5 Z"/></g>
<g><path style="opacity:0.985" fill="#d19b3b" d="M 2885.5,813.5 C 2908.17,813.5 2930.83,813.5 2953.5,813.5C 2953.5,840.833 2953.5,868.167 2953.5,895.5C 2930.83,895.5 2908.17,895.5 2885.5,895.5C 2885.5,868.167 2885.5,840.833 2885.5,813.5 Z"/></g>
<g><path style="opacity:0.985" fill="#cf9735" d="M 2953.5,813.5 C 2984.85,813.229 3016.18,813.562 3047.5,814.5C 3047.5,841.5 3047.5,868.5 3047.5,895.5C 3016.17,895.5 2984.83,895.5 2953.5,895.5C 2953.5,868.167 2953.5,840.833 2953.5,813.5 Z"/></g>
<g><path style="opacity:0.994" fill="#c98d21" d="M 3287.5,813.5 C 3287.5,916.833 3287.5,1020.17 3287.5,1123.5C 3267.17,1123.5 3246.83,1123.5 3226.5,1123.5C 3226.5,1020.17 3226.5,916.833 3226.5,813.5C 3246.83,813.5 3267.17,813.5 3287.5,813.5 Z"/></g>
<g><path style="opacity:0.99" fill="#c88b1d" d="M 3287.5,813.5 C 3299.5,813.5 3311.5,813.5 3323.5,813.5C 3323.5,850.167 3323.5,886.833 3323.5,923.5C 3337.83,923.5 3352.17,923.5 3366.5,923.5C 3366.5,950.5 3366.5,977.5 3366.5,1004.5C 3352.17,1004.5 3337.83,1004.5 3323.5,1004.5C 3323.5,1044.17 3323.5,1083.83 3323.5,1123.5C 3311.5,1123.5 3299.5,1123.5 3287.5,1123.5C 3287.5,1020.17 3287.5,916.833 3287.5,813.5 Z"/></g>
<g><path style="opacity:0.994" fill="#c68715" d="M 3547.5,813.5 C 3547.5,916.833 3547.5,1020.17 3547.5,1123.5C 3533.83,1123.5 3520.17,1123.5 3506.5,1123.5C 3506.5,1083.83 3506.5,1044.17 3506.5,1004.5C 3502.83,1004.5 3499.17,1004.5 3495.5,1004.5C 3495.5,977.5 3495.5,950.5 3495.5,923.5C 3499.17,923.5 3502.83,923.5 3506.5,923.5C 3506.5,886.833 3506.5,850.167 3506.5,813.5C 3520.17,813.5 3533.83,813.5 3547.5,813.5 Z"/></g>
<g><path style="opacity:0.998" fill="#c78917" d="M 3547.5,813.5 C 3548.5,813.5 3549.5,813.5 3550.5,813.5C 3550.5,916.833 3550.5,1020.17 3550.5,1123.5C 3549.5,1123.5 3548.5,1123.5 3547.5,1123.5C 3547.5,1020.17 3547.5,916.833 3547.5,813.5 Z"/></g>
<g><path style="opacity:0.998" fill="#c78918" d="M 3550.5,813.5 C 3552.17,813.5 3553.83,813.5 3555.5,813.5C 3555.5,916.833 3555.5,1020.17 3555.5,1123.5C 3553.83,1123.5 3552.17,1123.5 3550.5,1123.5C 3550.5,1020.17 3550.5,916.833 3550.5,813.5 Z"/></g>
<g><path style="opacity:0.988" fill="#c88a1b" d="M 3555.5,813.5 C 3571.17,813.5 3586.83,813.5 3602.5,813.5C 3602.5,916.833 3602.5,1020.17 3602.5,1123.5C 3586.83,1123.5 3571.17,1123.5 3555.5,1123.5C 3555.5,1020.17 3555.5,916.833 3555.5,813.5 Z"/></g>
<g><path style="opacity:0.989" fill="#d8a348" d="M 3947.5,813.5 C 3958.71,814.534 3969.71,816.534 3980.5,819.5C 3980.5,848.167 3980.5,876.833 3980.5,905.5C 3969.98,900.437 3958.98,896.771 3947.5,894.5C 3947.5,867.5 3947.5,840.5 3947.5,813.5 Z"/></g>
<g><path style="opacity:0.991" fill="#ecc381" d="M 4455.5,813.5 C 4455.5,918.5 4455.5,1023.5 4455.5,1128.5C 4449.19,1127.23 4443.19,1125.06 4437.5,1122C 4430.34,1116.67 4423.68,1110.84 4417.5,1104.5C 4417.5,1064.5 4417.5,1024.5 4417.5,984.5C 4421.76,987.251 4425.59,990.584 4429,994.5C 4429.5,934.168 4429.67,873.834 4429.5,813.5C 4438.17,813.5 4446.83,813.5 4455.5,813.5 Z"/></g>
<g><path style="opacity:0.998" fill="#edc484" d="M 4455.5,813.5 C 4461.17,813.5 4466.83,813.5 4472.5,813.5C 4472.5,918.5 4472.5,1023.5 4472.5,1128.5C 4466.83,1128.5 4461.17,1128.5 4455.5,1128.5C 4455.5,1023.5 4455.5,918.5 4455.5,813.5 Z"/></g>
<g><path style="opacity:0.997" fill="#eec687" d="M 4472.5,813.5 C 4481.83,813.5 4491.17,813.5 4500.5,813.5C 4500.5,914.5 4500.5,1015.5 4500.5,1116.5C 4492.5,1123.4 4483.17,1127.4 4472.5,1128.5C 4472.5,1023.5 4472.5,918.5 4472.5,813.5 Z"/></g>
<g><path style="opacity:0.996" fill="#eec78a" d="M 4500.5,813.5 C 4502.83,813.5 4505.17,813.5 4507.5,813.5C 4507.5,911.5 4507.5,1009.5 4507.5,1107.5C 4505.52,1110.81 4503.18,1113.81 4500.5,1116.5C 4500.5,1015.5 4500.5,914.5 4500.5,813.5 Z"/></g>
<g><path style="opacity:0.969" fill="#eec88b" d="M 4507.5,813.5 C 4510.83,813.5 4514.17,813.5 4517.5,813.5C 4517.67,903.167 4517.5,992.834 4517,1082.5C 4516.01,1091.78 4512.85,1100.12 4507.5,1107.5C 4507.5,1009.5 4507.5,911.5 4507.5,813.5 Z"/></g>
<g><path style="opacity:0.931" fill="#efcb93" d="M 4579.5,813.5 C 4579.5,825.5 4579.5,837.5 4579.5,849.5C 4568.88,837.879 4558.22,826.213 4547.5,814.5C 4558.15,813.501 4568.81,813.168 4579.5,813.5 Z"/></g>
<g><path style="opacity:0.977" fill="#efcd98" d="M 4579.5,813.5 C 4592.17,813.5 4604.83,813.5 4617.5,813.5C 4617.5,839.167 4617.5,864.833 4617.5,890.5C 4604.61,877.065 4591.94,863.398 4579.5,849.5C 4579.5,837.5 4579.5,825.5 4579.5,813.5 Z"/></g>
<g><path style="opacity:0.984" fill="#efcf9b" d="M 4617.5,813.5 C 4620.83,813.5 4624.17,813.5 4627.5,813.5C 4627.5,842.833 4627.5,872.167 4627.5,901.5C 4623.46,898.457 4620.12,894.791 4617.5,890.5C 4617.5,864.833 4617.5,839.167 4617.5,813.5 Z"/></g>
<g><path style="opacity:0.988" fill="#efd09f" d="M 4627.5,813.5 C 4640.5,813.5 4653.5,813.5 4666.5,813.5C 4666.5,857.167 4666.5,900.833 4666.5,944.5C 4653.16,930.491 4640.16,916.158 4627.5,901.5C 4627.5,872.167 4627.5,842.833 4627.5,813.5 Z"/></g>
<g><path style="opacity:0.989" fill="#f0d2a5" d="M 4666.5,813.5 C 4670.66,813.143 4673.83,814.81 4676,818.5C 4686,830.666 4696.17,842.666 4706.5,854.5C 4706.5,899.167 4706.5,943.833 4706.5,988.5C 4692.83,974.158 4679.49,959.492 4666.5,944.5C 4666.5,900.833 4666.5,857.167 4666.5,813.5 Z"/></g>
<g><path style="opacity:0.989" fill="#f1dfc3" d="M 4900.5,813.5 C 4900.5,857.5 4900.5,901.5 4900.5,945.5C 4891.54,956.79 4881.88,967.457 4871.5,977.5C 4871.5,932.833 4871.5,888.167 4871.5,843.5C 4879.37,833.606 4887.37,823.772 4895.5,814C 4897.13,813.506 4898.8,813.34 4900.5,813.5 Z"/></g>
<g><path style="opacity:0.989" fill="#f2e1c6" d="M 4900.5,813.5 C 4904.17,813.5 4907.83,813.5 4911.5,813.5C 4911.5,853.167 4911.5,892.833 4911.5,932.5C 4908.18,937.152 4904.51,941.485 4900.5,945.5C 4900.5,901.5 4900.5,857.5 4900.5,813.5 Z"/></g>
<g><path style="opacity:0.979" fill="#f2e3cb" d="M 4911.5,813.5 C 4946.5,813.5 4981.5,813.5 5016.5,813.5C 5016.5,814.167 5016.5,814.833 5016.5,815.5C 4981.87,854.798 4946.87,893.798 4911.5,932.5C 4911.5,892.833 4911.5,853.167 4911.5,813.5 Z"/></g>
<g><path style="opacity:0.986" fill="#ce9630" d="M 3047.5,814.5 C 3048.5,814.5 3049.5,814.5 3050.5,814.5C 3050.5,841.833 3050.5,869.167 3050.5,896.5C 3049.21,896.737 3048.21,896.404 3047.5,895.5C 3047.5,868.5 3047.5,841.5 3047.5,814.5 Z"/></g>
<g><path style="opacity:0.988" fill="#ce9630" d="M 3050.5,814.5 C 3054.66,814.956 3058.66,815.622 3062.5,816.5C 3062.5,844.5 3062.5,872.5 3062.5,900.5C 3058.72,898.572 3054.72,897.238 3050.5,896.5C 3050.5,869.167 3050.5,841.833 3050.5,814.5 Z"/></g>
<g><path style="opacity:0.992" fill="#cd942d" d="M 3062.5,816.5 C 3085.89,819.075 3107.56,826.409 3127.5,838.5C 3127.5,899.167 3127.5,959.833 3127.5,1020.5C 3107.44,1032.19 3085.78,1039.52 3062.5,1042.5C 3062.5,1014.83 3062.5,987.167 3062.5,959.5C 3081.39,948.287 3086.22,932.62 3077,912.5C 3073.23,907.2 3068.4,903.2 3062.5,900.5C 3062.5,872.5 3062.5,844.5 3062.5,816.5 Z"/></g>
<g><path style="opacity:0.988" fill="#e4bc7a" d="M 2100.5,817.5 C 2100.5,862.833 2100.5,908.167 2100.5,953.5C 2083.21,974.453 2065.21,994.786 2046.5,1014.5C 2046.5,970.833 2046.5,927.167 2046.5,883.5C 2064.15,861.185 2082.15,839.185 2100.5,817.5 Z"/></g>
<g><path style="opacity:0.923" fill="#05267d" d="M 104.5,818.5 C 124.5,818.5 144.5,818.5 164.5,818.5C 164.5,823.5 164.5,828.5 164.5,833.5C 144.42,832.958 124.42,831.958 104.5,830.5C 104.5,826.5 104.5,822.5 104.5,818.5 Z"/></g>
<g><path style="opacity:0.987" fill="#d9a64c" d="M 3980.5,819.5 C 3993.06,822.13 4005.06,826.13 4016.5,831.5C 4016.5,923.167 4016.5,1014.83 4016.5,1106.5C 4004.84,1111.5 3992.84,1115.5 3980.5,1118.5C 3980.5,1089.5 3980.5,1060.5 3980.5,1031.5C 3994.19,1022.16 4002.35,1009.16 4005,992.5C 4008.77,971.494 4007.44,950.828 4001,930.5C 3996.51,920.138 3989.67,911.804 3980.5,905.5C 3980.5,876.833 3980.5,848.167 3980.5,819.5 Z"/></g>
<g><path style="opacity:0.983" fill="#cf9630" d="M 3767.5,820.5 C 3767.5,850.167 3767.5,879.833 3767.5,909.5C 3754.29,922.782 3747.29,938.782 3746.5,957.5C 3746.5,914.167 3746.5,870.833 3746.5,827.5C 3753.27,824.718 3760.27,822.385 3767.5,820.5 Z"/></g>
<g><path style="opacity:0.916" fill="#e4b669" d="M 4235.5,820.5 C 4239.53,824.195 4243.53,827.862 4247.5,831.5C 4247.5,871.5 4247.5,911.5 4247.5,951.5C 4243.93,949.443 4240.77,946.777 4238,943.5C 4238.16,1003.84 4237.33,1063.84 4235.5,1123.5C 4235.5,1022.5 4235.5,921.5 4235.5,820.5 Z"/></g>
<g><path style="opacity:0.976" fill="#e0b05f" d="M 4161.5,826.5 C 4161.5,925.5 4161.5,1024.5 4161.5,1123.5C 4157.5,1123.5 4153.5,1123.5 4149.5,1123.5C 4149.33,1034.17 4149.5,944.833 4150,855.5C 4151.21,844.684 4155.04,835.017 4161.5,826.5 Z"/></g>
<g><path style="opacity:0.996" fill="#cf942d" d="M 3746.5,827.5 C 3746.5,870.833 3746.5,914.167 3746.5,957.5C 3746.5,964.833 3746.5,972.167 3746.5,979.5C 3746.5,1023.17 3746.5,1066.83 3746.5,1110.5C 3738.5,1107.94 3730.84,1104.61 3723.5,1100.5C 3723.5,1012.83 3723.5,925.167 3723.5,837.5C 3730.75,833.38 3738.41,830.047 3746.5,827.5 Z"/></g>
<g><path style="opacity:0.989" fill="#434559" d="M 798.5,828.5 C 798.5,875.167 798.5,921.833 798.5,968.5C 796.766,971.2 794.432,973.2 791.5,974.5C 791.5,928.5 791.5,882.5 791.5,836.5C 793.862,833.808 796.196,831.141 798.5,828.5 Z"/></g>
<g><path style="opacity:0.992" fill="#e6bf80" d="M 1892.5,829.5 C 1925.78,869.03 1959.78,908.03 1994.5,946.5C 2011.6,925.285 2028.94,904.285 2046.5,883.5C 2046.5,927.167 2046.5,970.833 2046.5,1014.5C 2045.16,1017.17 2043.32,1019.5 2041,1021.5C 2040.5,1055.5 2040.33,1089.5 2040.5,1123.5C 2008.17,1123.5 1975.83,1123.5 1943.5,1123.5C 1943.67,1089.17 1943.5,1054.83 1943,1020.5C 1925.93,1001.99 1909.09,983.324 1892.5,964.5C 1892.5,919.5 1892.5,874.5 1892.5,829.5 Z"/></g>
<g><path style="opacity:0.996" fill="#dba750" d="M 4016.5,831.5 C 4024.42,834.126 4031.75,837.793 4038.5,842.5C 4038.5,926.833 4038.5,1011.17 4038.5,1095.5C 4031.76,1100.2 4024.43,1103.87 4016.5,1106.5C 4016.5,1014.83 4016.5,923.167 4016.5,831.5 Z"/></g>
<g><path style="opacity:0.988" fill="#e5b76d" d="M 4247.5,831.5 C 4264.21,846.51 4280.87,861.51 4297.5,876.5C 4297.5,916.5 4297.5,956.5 4297.5,996.5C 4280.21,982.212 4263.54,967.212 4247.5,951.5C 4247.5,911.5 4247.5,871.5 4247.5,831.5 Z"/></g>
<g><path style="opacity:0.989" fill="#40435b" d="M 791.5,836.5 C 791.5,882.5 791.5,928.5 791.5,974.5C 781.768,984.198 771.435,993.198 760.5,1001.5C 760.5,957.833 760.5,914.167 760.5,870.5C 770.862,859.141 781.195,847.807 791.5,836.5 Z"/></g>
<g><path style="opacity:0.994" fill="#e0b66d" d="M 2252.5,836.5 C 2252.5,932.167 2252.5,1027.83 2252.5,1123.5C 2246.83,1123.5 2241.17,1123.5 2235.5,1123.5C 2235.5,1045.17 2235.5,966.833 2235.5,888.5C 2238.68,875.771 2242.18,863.104 2246,850.5C 2247.4,845.382 2249.56,840.715 2252.5,836.5 Z"/></g>
<g><path style="opacity:0.995" fill="#cd942b" d="M 3723.5,837.5 C 3723.5,925.167 3723.5,1012.83 3723.5,1100.5C 3720.97,1099.4 3718.64,1098.07 3716.5,1096.5C 3716.5,1011.5 3716.5,926.5 3716.5,841.5C 3718.34,839.412 3720.67,838.079 3723.5,837.5 Z"/></g>
<g><path style="opacity:0.985" fill="#cc9229" d="M 3127.5,838.5 C 3161.47,859.251 3178.47,889.751 3178.5,930C 3178.69,970.147 3161.69,1000.31 3127.5,1020.5C 3127.5,959.833 3127.5,899.167 3127.5,838.5 Z"/></g>
<g><path style="opacity:0.992" fill="#cd9228" d="M 3716.5,841.5 C 3716.5,926.5 3716.5,1011.5 3716.5,1096.5C 3692.59,1083.92 3675.25,1065.25 3664.5,1040.5C 3664.5,992.833 3664.5,945.167 3664.5,897.5C 3675.28,872.726 3692.61,854.059 3716.5,841.5 Z"/></g>
<g><path style="opacity:0.993" fill="#dcaa54" d="M 4038.5,842.5 C 4061.78,855.442 4078.78,874.109 4089.5,898.5C 4089.5,945.5 4089.5,992.5 4089.5,1039.5C 4078.8,1063.87 4061.8,1082.54 4038.5,1095.5C 4038.5,1011.17 4038.5,926.833 4038.5,842.5 Z"/></g>
<g><path style="opacity:0.974" fill="#f1ddbe" d="M 4871.5,843.5 C 4871.5,888.167 4871.5,932.833 4871.5,977.5C 4859.6,992.238 4847.1,1006.57 4834,1020.5C 4833.83,1055 4833.33,1089.34 4832.5,1123.5C 4832.5,1046.17 4832.5,968.833 4832.5,891.5C 4844.75,874.915 4857.75,858.915 4871.5,843.5 Z"/></g>
<g><path style="opacity:0.989" fill="#efd4a8" d="M 4706.5,854.5 C 4708.14,856.475 4709.8,858.475 4711.5,860.5C 4711.5,904.833 4711.5,949.167 4711.5,993.5C 4709.5,992.167 4707.83,990.5 4706.5,988.5C 4706.5,943.833 4706.5,899.167 4706.5,854.5 Z"/></g>
<g><path style="opacity:0.988" fill="#daaa58" d="M 2540.5,859.5 C 2540.5,915.833 2540.5,972.167 2540.5,1028.5C 2529.89,1049.09 2518.89,1069.42 2507.5,1089.5C 2507.5,1032.5 2507.5,975.5 2507.5,918.5C 2518.25,898.664 2529.25,878.997 2540.5,859.5 Z"/></g>
<g><path style="opacity:0.991" fill="#f0d5ac" d="M 4711.5,860.5 C 4723.51,873.847 4735.18,887.514 4746.5,901.5C 4746.5,975.5 4746.5,1049.5 4746.5,1123.5C 4743.17,1123.5 4739.83,1123.5 4736.5,1123.5C 4736.67,1089.5 4736.5,1055.5 4736,1021.5C 4728,1012 4719.83,1002.67 4711.5,993.5C 4711.5,949.167 4711.5,904.833 4711.5,860.5 Z"/></g>
<g><path style="opacity:0.931" fill="#d4a045" d="M 2793.5,863.5 C 2793.5,874.167 2793.5,884.833 2793.5,895.5C 2785.14,895.831 2776.81,895.498 2768.5,894.5C 2776.51,883.834 2784.84,873.501 2793.5,863.5 Z"/></g>
<g><path style="opacity:0.988" fill="#3d425d" d="M 760.5,870.5 C 760.5,914.167 760.5,957.833 760.5,1001.5C 759.109,1003.89 757.109,1005.56 754.5,1006.5C 754.5,963.5 754.5,920.5 754.5,877.5C 756.273,874.94 758.273,872.607 760.5,870.5 Z"/></g>
<g><path style="opacity:0.988" fill="#e6ba72" d="M 4297.5,876.5 C 4307.4,884.942 4317.06,893.609 4326.5,902.5C 4326.5,942.5 4326.5,982.5 4326.5,1022.5C 4316.21,1014.55 4306.54,1005.88 4297.5,996.5C 4297.5,956.5 4297.5,916.5 4297.5,876.5 Z"/></g>
<g><path style="opacity:0.99" fill="#3b405e" d="M 754.5,877.5 C 754.5,920.5 754.5,963.5 754.5,1006.5C 743.383,1016.22 731.717,1025.22 719.5,1033.5C 719.5,992.833 719.5,952.167 719.5,911.5C 731.14,900.194 742.807,888.861 754.5,877.5 Z"/></g>
<g><path style="opacity:0.991" fill="#e1b66f" d="M 2235.5,888.5 C 2235.5,966.833 2235.5,1045.17 2235.5,1123.5C 2225.83,1123.5 2216.17,1123.5 2206.5,1123.5C 2206.5,1077.83 2206.5,1032.17 2206.5,986.5C 2215.57,953.552 2225.23,920.886 2235.5,888.5 Z"/></g>
<g><path style="opacity:0.989" fill="#dcaf61" d="M 2379.5,888.5 C 2396.42,917.997 2413.08,947.664 2429.5,977.5C 2429.5,1027.17 2429.5,1076.83 2429.5,1126.5C 2419.32,1123.51 2410.82,1117.84 2404,1109.5C 2394.79,1095.09 2386.63,1080.09 2379.5,1064.5C 2379.5,1005.83 2379.5,947.167 2379.5,888.5 Z"/></g>
<g><path style="opacity:0.996" fill="#f1dbb9" d="M 4832.5,891.5 C 4832.5,968.833 4832.5,1046.17 4832.5,1123.5C 4823.5,1123.5 4814.5,1123.5 4805.5,1123.5C 4805.5,1057.17 4805.5,990.833 4805.5,924.5C 4813.78,912.94 4822.78,901.94 4832.5,891.5 Z"/></g>
<g><path style="opacity:0.966" fill="#cc8f24" d="M 3664.5,897.5 C 3664.5,945.167 3664.5,992.833 3664.5,1040.5C 3654.47,1017.69 3649.81,993.693 3650.5,968.5C 3649.81,943.634 3654.47,919.967 3664.5,897.5 Z"/></g>
<g><path style="opacity:0.95" fill="#deac58" d="M 4089.5,898.5 C 4094.47,908.568 4097.97,919.234 4100,930.5C 4105.77,962.899 4104.1,994.899 4095,1026.5C 4093.43,1031.06 4091.6,1035.39 4089.5,1039.5C 4089.5,992.5 4089.5,945.5 4089.5,898.5 Z"/></g>
<g><path style="opacity:0.996" fill="#f0d8b1" d="M 4746.5,901.5 C 4760.69,916.198 4774.19,931.532 4787,947.5C 4788.7,944.98 4790.53,942.647 4792.5,940.5C 4792.5,1001.5 4792.5,1062.5 4792.5,1123.5C 4777.17,1123.5 4761.83,1123.5 4746.5,1123.5C 4746.5,1049.5 4746.5,975.5 4746.5,901.5 Z"/></g>
<g><path style="opacity:0.99" fill="#e6bc73" d="M 4326.5,902.5 C 4327.5,902.833 4328.17,903.5 4328.5,904.5C 4328.5,944.5 4328.5,984.5 4328.5,1024.5C 4327.5,1024.17 4326.83,1023.5 4326.5,1022.5C 4326.5,982.5 4326.5,942.5 4326.5,902.5 Z"/></g>
<g><path style="opacity:0.989" fill="#e8bc75" d="M 4328.5,904.5 C 4335.16,909.825 4341.49,915.491 4347.5,921.5C 4347.5,961.5 4347.5,1001.5 4347.5,1041.5C 4340.84,1036.18 4334.51,1030.51 4328.5,1024.5C 4328.5,984.5 4328.5,944.5 4328.5,904.5 Z"/></g>
<g><path style="opacity:0.987" fill="#373f60" d="M 719.5,911.5 C 719.5,952.167 719.5,992.833 719.5,1033.5C 717.2,1035.98 714.533,1037.98 711.5,1039.5C 711.5,999.5 711.5,959.5 711.5,919.5C 713.833,916.5 716.5,913.833 719.5,911.5 Z"/></g>
<g><path style="opacity:0.989" fill="#dbac5b" d="M 2507.5,918.5 C 2507.5,975.5 2507.5,1032.5 2507.5,1089.5C 2501.64,1105.2 2491.31,1117.03 2476.5,1125C 2471.34,1127 2466.01,1128.17 2460.5,1128.5C 2460.5,1086.83 2460.5,1045.17 2460.5,1003.5C 2474.97,974.399 2490.64,946.065 2507.5,918.5 Z"/></g>
<g><path style="opacity:0.989" fill="#353d62" d="M 711.5,919.5 C 711.5,959.5 711.5,999.5 711.5,1039.5C 701.731,1047.56 691.398,1054.89 680.5,1061.5C 680.5,1023.17 680.5,984.833 680.5,946.5C 690.606,937.274 700.939,928.274 711.5,919.5 Z"/></g>
<g><path style="opacity:0.988" fill="#e9be79" d="M 4347.5,921.5 C 4364.79,935.788 4381.46,950.788 4397.5,966.5C 4397.5,1006.5 4397.5,1046.5 4397.5,1086.5C 4380.21,1072.21 4363.54,1057.21 4347.5,1041.5C 4347.5,1001.5 4347.5,961.5 4347.5,921.5 Z"/></g>
<g><path style="opacity:0.997" fill="#c78919" d="M 3366.5,923.5 C 3371.5,923.5 3376.5,923.5 3381.5,923.5C 3381.5,950.5 3381.5,977.5 3381.5,1004.5C 3376.5,1004.5 3371.5,1004.5 3366.5,1004.5C 3366.5,977.5 3366.5,950.5 3366.5,923.5 Z"/></g>
<g><path style="opacity:0.997" fill="#c68715" d="M 3381.5,923.5 C 3408.17,923.5 3434.83,923.5 3461.5,923.5C 3461.5,950.5 3461.5,977.5 3461.5,1004.5C 3434.83,1004.5 3408.17,1004.5 3381.5,1004.5C 3381.5,977.5 3381.5,950.5 3381.5,923.5 Z"/></g>
<g><path style="opacity:0.997" fill="#c58511" d="M 3461.5,923.5 C 3472.83,923.5 3484.17,923.5 3495.5,923.5C 3495.5,950.5 3495.5,977.5 3495.5,1004.5C 3484.17,1004.5 3472.83,1004.5 3461.5,1004.5C 3461.5,977.5 3461.5,950.5 3461.5,923.5 Z"/></g>
<g><path style="opacity:0.996" fill="#f1dab6" d="M 4805.5,924.5 C 4805.5,990.833 4805.5,1057.17 4805.5,1123.5C 4801.17,1123.5 4796.83,1123.5 4792.5,1123.5C 4792.5,1062.5 4792.5,1001.5 4792.5,940.5C 4796.36,934.76 4800.7,929.427 4805.5,924.5 Z"/></g>
<g><path style="opacity:0.993" fill="#ebc581" d="M 1473.5,937.5 C 1530.83,937.333 1588.17,937.5 1645.5,938C 1669.96,939.153 1692.29,946.487 1712.5,960C 1731.09,976.586 1740.09,997.419 1739.5,1022.5C 1738.48,1076.36 1711.48,1108.53 1658.5,1119C 1648.91,1120.91 1639.25,1122.24 1629.5,1123C 1577.5,1123.5 1525.5,1123.67 1473.5,1123.5C 1473.5,1096.83 1473.5,1070.17 1473.5,1043.5C 1522.83,1043.67 1572.17,1043.5 1621.5,1043C 1641.32,1041.84 1648.82,1031.67 1644,1012.5C 1641.77,1007.27 1637.94,1003.77 1632.5,1002C 1629.21,1001.12 1625.88,1000.45 1622.5,1000C 1572.83,999.5 1523.17,999.333 1473.5,999.5C 1473.5,978.833 1473.5,958.167 1473.5,937.5 Z"/></g>
<g><path style="opacity:0.99" fill="#323c64" d="M 680.5,946.5 C 680.5,984.833 680.5,1023.17 680.5,1061.5C 677.411,1063.92 674.078,1065.92 670.5,1067.5C 670.5,1029.83 670.5,992.167 670.5,954.5C 673.545,951.453 676.878,948.787 680.5,946.5 Z"/></g>
<g><path style="opacity:0.988" fill="#2e3a65" d="M 670.5,954.5 C 670.5,992.167 670.5,1029.83 670.5,1067.5C 655.832,1077.51 640.499,1086.51 624.5,1094.5C 624.5,1059.5 624.5,1024.5 624.5,989.5C 639.809,977.864 655.143,966.198 670.5,954.5 Z"/></g>
<g><path style="opacity:0.99" fill="#ce9630" d="M 3062.5,959.5 C 3062.5,987.167 3062.5,1014.83 3062.5,1042.5C 3058.53,1043.16 3054.53,1043.5 3050.5,1043.5C 3050.5,1016.83 3050.5,990.167 3050.5,963.5C 3054.7,962.729 3058.7,961.396 3062.5,959.5 Z"/></g>
<g><path style="opacity:0.989" fill="#ce9630" d="M 3050.5,963.5 C 3050.5,990.167 3050.5,1016.83 3050.5,1043.5C 3049.39,1043.56 3048.39,1043.89 3047.5,1044.5C 3047.5,1017.83 3047.5,991.167 3047.5,964.5C 3048.21,963.596 3049.21,963.263 3050.5,963.5 Z"/></g>
<g><path style="opacity:0.921" fill="#d4a145" d="M 2778.5,964.5 C 2778.5,1017.5 2778.5,1070.5 2778.5,1123.5C 2775.17,1123.5 2771.83,1123.5 2768.5,1123.5C 2768.5,1070.5 2768.5,1017.5 2768.5,964.5C 2771.83,964.5 2775.17,964.5 2778.5,964.5 Z"/></g>
<g><path style="opacity:0.995" fill="#d4a045" d="M 2778.5,964.5 C 2783.5,964.5 2788.5,964.5 2793.5,964.5C 2793.5,1017.5 2793.5,1070.5 2793.5,1123.5C 2788.5,1123.5 2783.5,1123.5 2778.5,1123.5C 2778.5,1070.5 2778.5,1017.5 2778.5,964.5 Z"/></g>
<g><path style="opacity:0.99" fill="#d39e41" d="M 2793.5,964.5 C 2820.17,964.5 2846.83,964.5 2873.5,964.5C 2873.5,991.167 2873.5,1017.83 2873.5,1044.5C 2870.83,1044.5 2868.17,1044.5 2865.5,1044.5C 2865.5,1070.83 2865.5,1097.17 2865.5,1123.5C 2841.5,1123.5 2817.5,1123.5 2793.5,1123.5C 2793.5,1070.5 2793.5,1017.5 2793.5,964.5 Z"/></g>
<g><path style="opacity:0.991" fill="#d19d3d" d="M 2873.5,964.5 C 2877.5,964.5 2881.5,964.5 2885.5,964.5C 2885.5,991.167 2885.5,1017.83 2885.5,1044.5C 2881.5,1044.5 2877.5,1044.5 2873.5,1044.5C 2873.5,1017.83 2873.5,991.167 2873.5,964.5 Z"/></g>
<g><path style="opacity:0.991" fill="#d19b3b" d="M 2885.5,964.5 C 2908.17,964.5 2930.83,964.5 2953.5,964.5C 2953.5,991.167 2953.5,1017.83 2953.5,1044.5C 2930.83,1044.5 2908.17,1044.5 2885.5,1044.5C 2885.5,1017.83 2885.5,991.167 2885.5,964.5 Z"/></g>
<g><path style="opacity:0.99" fill="#cf9735" d="M 2953.5,964.5 C 2984.83,964.5 3016.17,964.5 3047.5,964.5C 3047.5,991.167 3047.5,1017.83 3047.5,1044.5C 3016.17,1044.5 2984.83,1044.5 2953.5,1044.5C 2953.5,1017.83 2953.5,991.167 2953.5,964.5 Z"/></g>
<g><path style="opacity:0.988" fill="#eac07d" d="M 4397.5,966.5 C 4404.49,972.158 4411.16,978.158 4417.5,984.5C 4417.5,1024.5 4417.5,1064.5 4417.5,1104.5C 4410.51,1098.84 4403.84,1092.84 4397.5,1086.5C 4397.5,1046.5 4397.5,1006.5 4397.5,966.5 Z"/></g>
<g><path style="opacity:0.99" fill="#dcad5e" d="M 2429.5,977.5 C 2437.48,991.457 2444.98,1005.79 2452,1020.5C 2454.34,1014.49 2457.17,1008.83 2460.5,1003.5C 2460.5,1045.17 2460.5,1086.83 2460.5,1128.5C 2452.16,1128.67 2443.83,1128.5 2435.5,1128C 2433.29,1127.81 2431.29,1127.31 2429.5,1126.5C 2429.5,1076.83 2429.5,1027.17 2429.5,977.5 Z"/></g>
<g><path style="opacity:0.982" fill="#cf9630" d="M 3746.5,979.5 C 3747.29,998.218 3754.29,1014.22 3767.5,1027.5C 3767.5,1057.17 3767.5,1086.83 3767.5,1116.5C 3760.27,1115.28 3753.27,1113.28 3746.5,1110.5C 3746.5,1066.83 3746.5,1023.17 3746.5,979.5 Z"/></g>
<g><path style="opacity:0.977" fill="#e1b771" d="M 2206.5,986.5 C 2206.5,1032.17 2206.5,1077.83 2206.5,1123.5C 2192.83,1123.67 2179.16,1123.5 2165.5,1123C 2179.11,1077.39 2192.77,1031.89 2206.5,986.5 Z"/></g>
<g><path style="opacity:0.989" fill="#2b3968" d="M 624.5,989.5 C 624.5,1024.5 624.5,1059.5 624.5,1094.5C 623.71,1095.4 622.71,1096.07 621.5,1096.5C 621.5,1061.5 621.5,1026.5 621.5,991.5C 621.973,990.094 622.973,989.427 624.5,989.5 Z"/></g>
<g><path style="opacity:0.989" fill="#283769" d="M 621.5,991.5 C 621.5,1026.5 621.5,1061.5 621.5,1096.5C 609.076,1103.05 596.409,1109.05 583.5,1114.5C 583.5,1081.17 583.5,1047.83 583.5,1014.5C 596.159,1006.84 608.825,999.17 621.5,991.5 Z"/></g>
<g><path style="opacity:0.989" fill="#26366b" d="M 583.5,1014.5 C 583.5,1047.83 583.5,1081.17 583.5,1114.5C 580.598,1115.78 577.598,1116.78 574.5,1117.5C 574.5,1084.83 574.5,1052.17 574.5,1019.5C 577.304,1017.6 580.304,1015.93 583.5,1014.5 Z"/></g>
<g><path style="opacity:0.99" fill="#22346c" d="M 574.5,1019.5 C 574.5,1052.17 574.5,1084.83 574.5,1117.5C 557.141,1125.4 539.141,1131.73 520.5,1136.5C 520.5,1105.83 520.5,1075.17 520.5,1044.5C 538.869,1036.93 556.869,1028.6 574.5,1019.5 Z"/></g>
<g><path style="opacity:0.989" fill="#d19834" d="M 3767.5,1027.5 C 3785.72,1039.06 3805.72,1045.06 3827.5,1045.5C 3827.5,1072.5 3827.5,1099.5 3827.5,1126.5C 3806.99,1125.48 3786.99,1122.14 3767.5,1116.5C 3767.5,1086.83 3767.5,1057.17 3767.5,1027.5 Z"/></g>
<g><path style="opacity:0.989" fill="#d8a348" d="M 3980.5,1031.5 C 3980.5,1060.5 3980.5,1089.5 3980.5,1118.5C 3969.6,1121.01 3958.6,1123.01 3947.5,1124.5C 3947.5,1097.5 3947.5,1070.5 3947.5,1043.5C 3958.99,1041.11 3969.99,1037.11 3980.5,1031.5 Z"/></g>
<g><path style="opacity:0.988" fill="#0e2a78" d="M 290.5,1032.5 C 311.966,1045.39 334.966,1054.73 359.5,1060.5C 359.5,1088.17 359.5,1115.83 359.5,1143.5C 335.494,1138.94 312.494,1131.61 290.5,1121.5C 290.5,1091.83 290.5,1062.17 290.5,1032.5 Z"/></g>
<g><path style="opacity:0.992" fill="#eec881" d="M 1473.5,1043.5 C 1473.5,1070.17 1473.5,1096.83 1473.5,1123.5C 1421.5,1123.67 1369.5,1123.5 1317.5,1123C 1337.83,1096.67 1358.17,1070.33 1378.5,1044C 1410.16,1043.5 1441.83,1043.33 1473.5,1043.5 Z"/></g>
<g><path style="opacity:0.991" fill="#d7a145" d="M 3947.5,1043.5 C 3947.5,1070.5 3947.5,1097.5 3947.5,1124.5C 3941.52,1125.33 3935.52,1126 3929.5,1126.5C 3929.5,1099.5 3929.5,1072.5 3929.5,1045.5C 3935.48,1044.67 3941.48,1044 3947.5,1043.5 Z"/></g>
<g><path style="opacity:0.988" fill="#1e326f" d="M 520.5,1044.5 C 520.5,1075.17 520.5,1105.83 520.5,1136.5C 513.229,1138.42 505.895,1140.09 498.5,1141.5C 498.5,1111.83 498.5,1082.17 498.5,1052.5C 505.682,1049.66 513.015,1046.99 520.5,1044.5 Z"/></g>
<g><path style="opacity:0.989" fill="#d39b3a" d="M 3827.5,1045.5 C 3836.49,1046.2 3845.49,1046.87 3854.5,1047.5C 3854.5,1074.5 3854.5,1101.5 3854.5,1128.5C 3845.41,1128.35 3836.41,1127.68 3827.5,1126.5C 3827.5,1099.5 3827.5,1072.5 3827.5,1045.5 Z"/></g>
<g><path style="opacity:0.992" fill="#d59f41" d="M 3929.5,1045.5 C 3929.5,1072.5 3929.5,1099.5 3929.5,1126.5C 3912.55,1128.1 3895.55,1128.77 3878.5,1128.5C 3878.5,1101.5 3878.5,1074.5 3878.5,1047.5C 3895.53,1047.52 3912.53,1046.86 3929.5,1045.5 Z"/></g>
<g><path style="opacity:0.962" fill="#d5a249" d="M 2713.5,1047.5 C 2721.41,1072.56 2728.74,1097.9 2735.5,1123.5C 2728.17,1123.5 2720.83,1123.5 2713.5,1123.5C 2713.5,1098.17 2713.5,1072.83 2713.5,1047.5 Z"/></g>
<g><path style="opacity:0.996" fill="#d49d3c" d="M 3854.5,1047.5 C 3860.17,1047.5 3865.83,1047.5 3871.5,1047.5C 3871.5,1074.5 3871.5,1101.5 3871.5,1128.5C 3865.83,1128.5 3860.17,1128.5 3854.5,1128.5C 3854.5,1101.5 3854.5,1074.5 3854.5,1047.5 Z"/></g>
<g><path style="opacity:0.994" fill="#d49e3d" d="M 3871.5,1047.5 C 3873.83,1047.5 3876.17,1047.5 3878.5,1047.5C 3878.5,1074.5 3878.5,1101.5 3878.5,1128.5C 3876.17,1128.5 3873.83,1128.5 3871.5,1128.5C 3871.5,1101.5 3871.5,1074.5 3871.5,1047.5 Z"/></g>
<g><path style="opacity:0.99" fill="#1c3170" d="M 498.5,1052.5 C 498.5,1082.17 498.5,1111.83 498.5,1141.5C 494.167,1142.61 489.834,1143.61 485.5,1144.5C 485.5,1115.17 485.5,1085.83 485.5,1056.5C 489.697,1054.77 494.031,1053.43 498.5,1052.5 Z"/></g>
<g><path style="opacity:0.99" fill="#1a3071" d="M 485.5,1056.5 C 485.5,1085.83 485.5,1115.17 485.5,1144.5C 473.577,1146.49 461.577,1147.82 449.5,1148.5C 449.5,1120.17 449.5,1091.83 449.5,1063.5C 461.691,1062.12 473.691,1059.79 485.5,1056.5 Z"/></g>
<g><path style="opacity:0.989" fill="#112b77" d="M 359.5,1060.5 C 360.609,1060.56 361.609,1060.89 362.5,1061.5C 362.5,1089.17 362.5,1116.83 362.5,1144.5C 361.609,1143.89 360.609,1143.56 359.5,1143.5C 359.5,1115.83 359.5,1088.17 359.5,1060.5 Z"/></g>
<g><path style="opacity:0.989" fill="#112c76" d="M 362.5,1061.5 C 368.004,1062.27 373.338,1063.27 378.5,1064.5C 378.5,1091.83 378.5,1119.17 378.5,1146.5C 373.167,1145.83 367.833,1145.17 362.5,1144.5C 362.5,1116.83 362.5,1089.17 362.5,1061.5 Z"/></g>
<g><path style="opacity:0.991" fill="#152d74" d="M 449.5,1063.5 C 449.5,1091.83 449.5,1120.17 449.5,1148.5C 448.209,1148.26 447.209,1148.6 446.5,1149.5C 431.5,1149.5 416.5,1149.5 401.5,1149.5C 393.952,1148.56 386.285,1147.56 378.5,1146.5C 378.5,1119.17 378.5,1091.83 378.5,1064.5C 402.268,1067.45 425.935,1067.12 449.5,1063.5 Z"/></g>
</svg>
